<svg xmlns="http://www.w3.org/2000/svg" xmlns:xlink="http://www.w3.org/1999/xlink" width="288" height="17.147" viewBox="0 0 288 17.147">
  <defs>
    <linearGradient id="linear-gradient" x1="0.049" y1="0.5" x2="1" y2="0.5" gradientUnits="objectBoundingBox">
      <stop offset="0" stop-color="#ffcf4a"/>
      <stop offset="0.469" stop-color="#ecdd38"/>
      <stop offset="1" stop-color="#c7ff28"/>
    </linearGradient>
  </defs>
  <path id="패스_6305" data-name="패스 6305" d="M.937,4.561h1.6V-.127h2.8c3,0,4.385-1.827,4.385-4.117s-1.381-4.1-4.4-4.1H.937Zm1.6-6.114V-6.918H5.251c2.076,0,2.879,1.132,2.887,2.674-.009,1.533-.811,2.691-2.87,2.691ZM20.16,4.757c2.629.009,4.394-1.987,4.385-4.991.009-3.021-1.756-5.009-4.385-5.009s-4.42,1.987-4.42,5.009C15.739,2.769,17.522,4.766,20.16,4.757ZM17.272-.234c.009-1.925.918-3.654,2.887-3.654,1.952,0,2.852,1.729,2.852,3.654S22.112,3.4,20.16,3.4C18.19,3.4,17.281,1.7,17.272-.234Zm17.77,4.991a3.587,3.587,0,0,0,3.814-3.048H37.323a2.2,2.2,0,0,1-2.281,1.675c-1.756,0-2.879-1.435-2.887-3.672.009-2.175,1.159-3.6,2.887-3.6a2.24,2.24,0,0,1,2.281,1.693h1.533a3.614,3.614,0,0,0-3.85-3.048c-2.629,0-4.385,2.068-4.385,5.009C30.622,2.671,32.3,4.766,35.042,4.757Zm10.23-.2H46.8V.951L47.83,0l3.592,4.563h1.943L48.98-.974l4.082-4.144H51.172L46.983-.84H46.8v-7.5H45.272Zm17.618.2A3.768,3.768,0,0,0,66.776,2.3h-1.64A2.476,2.476,0,0,1,62.89,3.4C61.17,3.4,59.976,2.279,59.9.229h7.023V-.412c.009-3.583-2.139-4.83-4.171-4.83-2.629,0-4.385,2.068-4.385,5.044S60.092,4.766,62.89,4.757ZM59.9-1.072a2.869,2.869,0,0,1,2.843-2.816,2.605,2.605,0,0,1,2.62,2.816ZM77.666-5.118H75.634V-7.435H74.083v2.317H72.621v1.283h1.462V2.172a2.492,2.492,0,0,0,2.656,2.513,7.532,7.532,0,0,0,1.069-.071V3.188c-.223.009-.633.036-.909.036-.651,0-1.274-.2-1.266-1.444V-3.834h2.032ZM93.474,4.561h4.688c3.048,0,4.322-1.488,4.331-3.422a3.017,3.017,0,0,0-2.62-3.226v-.125a2.592,2.592,0,0,0,2.1-2.709c.009-1.9-1.265-3.422-3.975-3.422H93.474Zm1.6-1.426V-1.3h3.155a2.493,2.493,0,0,1,2.709,2.424c.009,1.123-.775,2.014-2.8,2.014Zm0-5.828V-6.918H98c1.684,0,2.442.891,2.442,2.014a2.27,2.27,0,0,1-2.5,2.21Zm20.14,3.28a2.487,2.487,0,0,1-2.478,2.62,2.073,2.073,0,0,1-2.1-2.281V-5.118H109.1V1.032c-.009,2.46,1.3,3.654,3.137,3.654a3.027,3.027,0,0,0,2.87-1.765h.107v1.64h1.515V-5.118h-1.515Zm8.5,3.975h1.533V-5.118h-1.533Zm-.3-12.3a1.039,1.039,0,0,0,1.069,1.016,1.067,1.067,0,0,0,1.087-1.016,1.055,1.055,0,0,0-1.087-1.016A1.028,1.028,0,0,0,123.416-7.738Zm10.337-.606h-1.533v12.9h1.533Zm10.622,13.1a2.993,2.993,0,0,0,2.816-1.675h.16V4.561h1.5v-12.9H147.3v4.759h-.107a2.94,2.94,0,0,0-2.8-1.658c-2.433,0-4.135,1.925-4.135,4.991S141.96,4.766,144.376,4.757ZM141.809-.287c0-2.023.918-3.583,2.781-3.583,1.8,0,2.754,1.435,2.763,3.583-.009,2.175-.989,3.672-2.763,3.672C142.754,3.384,141.809,1.771,141.809-.287Zm20.336.873a2.487,2.487,0,0,1-2.478,2.62,2.073,2.073,0,0,1-2.1-2.281V-5.118h-1.533V1.032c-.009,2.46,1.3,3.654,3.137,3.654a3.027,3.027,0,0,0,2.87-1.765h.107v1.64h1.515V-5.118h-1.515Zm8.5,7.611h1.533V3.081h.125a2.982,2.982,0,0,0,2.816,1.675c2.415.009,4.1-1.934,4.1-5.009s-1.684-4.991-4.117-4.991a2.94,2.94,0,0,0-2.8,1.658h-.178V-5.118h-1.479Zm1.5-8.484c.009-2.148.954-3.583,2.763-3.583,1.863,0,2.781,1.56,2.781,3.583,0,2.059-.945,3.672-2.781,3.672C173.124,3.384,172.153,1.887,172.144-.287Zm22.9,4.848h1.6V-.127h2.8c3,0,4.385-1.827,4.385-4.117s-1.381-4.1-4.4-4.1h-4.385Zm1.6-6.114V-6.918h2.709c2.076,0,2.879,1.132,2.887,2.674-.009,1.533-.811,2.691-2.87,2.691Zm13.759,6.114h1.533v-6.1A2.285,2.285,0,0,1,214.366-3.8a4.661,4.661,0,0,1,.927.107V-5.243c-.178-.018-.57-.027-.8-.036a2.614,2.614,0,0,0-2.5,1.64h-.107V-5.118h-1.479Zm14.552.2c2.629.009,4.394-1.987,4.385-4.991.009-3.021-1.756-5.009-4.385-5.009s-4.42,1.987-4.42,5.009C220.541,2.769,222.324,4.766,224.962,4.757ZM222.074-.234c.009-1.925.918-3.654,2.887-3.654,1.952,0,2.852,1.729,2.852,3.654s-.9,3.636-2.852,3.636C222.992,3.4,222.083,1.7,222.074-.234Zm17.734,8.627c2.362,0,4.2-1.069,4.206-3.565V-5.118h-1.5v1.533h-.125a3.027,3.027,0,0,0-2.834-1.658c-2.433,0-4.135,1.854-4.135,4.83,0,3.048,1.765,4.821,4.117,4.83a2.962,2.962,0,0,0,2.816-1.64h.125V4.739c0,1.6-1.016,2.317-2.674,2.317-1.372,0-2.29-.49-2.5-1.479h-1.6C235.878,7.368,237.464,8.393,239.808,8.393ZM236.974-.359c0-1.952.918-3.511,2.781-3.511,1.8,0,2.754,1.435,2.763,3.511-.009,2.13-.989,3.4-2.763,3.4C237.919,3.046,236.974,1.646,236.974-.359Zm14.009,4.919h1.533v-6.1A2.285,2.285,0,0,1,254.94-3.8a4.661,4.661,0,0,1,.927.107V-5.243c-.178-.018-.57-.027-.8-.036a2.614,2.614,0,0,0-2.5,1.64h-.107V-5.118h-1.479Zm10.435-2.745c0,1.889,1.462,2.968,3.3,2.977A3.079,3.079,0,0,0,267.6,3.242h.071V4.561h1.515V-1.82c.009-3.048-2.371-3.422-3.636-3.422-2.139,0-3.654,1.078-3.85,2.638h1.6a2.044,2.044,0,0,1,2.175-1.3c1.462,0,2.192.713,2.192,1.943v.784c-.437.009-2,.1-2.62.143C263.379-.911,261.418-.4,261.418,1.816Zm1.533.071c.009-1.061.891-1.551,2.281-1.64C265.7.221,267.22.1,267.674.078v.971a2.449,2.449,0,0,1-2.691,2.371C263.807,3.429,262.96,2.912,262.951,1.887Zm13.225,2.674h1.533V-1.482a2.26,2.26,0,0,1,2.174-2.388,1.76,1.76,0,0,1,1.889,1.818V4.561h1.551V-1.731a2.006,2.006,0,0,1,2.121-2.139A1.8,1.8,0,0,1,287.4-1.892V4.561h1.533v-6.47c0-2.281-1.239-3.333-2.959-3.333a3.064,3.064,0,0,0-2.905,1.64h-.107a2.632,2.632,0,0,0-2.584-1.64,2.608,2.608,0,0,0-2.6,1.64h-.125V-5.118h-1.479Z" transform="translate(-0.938 8.754)" fill="url(#linear-gradient)"/>
</svg>
