<svg id="m_sec7-logo" xmlns="http://www.w3.org/2000/svg" xmlns:xlink="http://www.w3.org/1999/xlink" width="77.026" height="41.683" viewBox="0 0 77.026 41.683">
  <defs>
    <clipPath id="clip-path">
      <rect id="사각형_10232" data-name="사각형 10232" width="77.026" height="41.683" fill="none"/>
    </clipPath>
    <clipPath id="clip-path-3">
      <rect id="사각형_10230" data-name="사각형 10230" width="13.114" height="16.617" fill="none"/>
    </clipPath>
  </defs>
  <g id="그룹_18968" data-name="그룹 18968" clip-path="url(#clip-path)">
    <g id="그룹_18967" data-name="그룹 18967" transform="translate(0 0)">
      <g id="그룹_18966" data-name="그룹 18966" clip-path="url(#clip-path)">
        <path id="패스_10390" data-name="패스 10390" d="M0,76.525l2.756,0a3.076,3.076,0,0,1,.8.1,1.873,1.873,0,0,1,.667.325,1.58,1.58,0,0,1,.46.585,2,2,0,0,1,.171.858,1.921,1.921,0,0,1-.548,1.521,2.279,2.279,0,0,1-1.549.48H1.515V82.33H0Zm1.514,2.7H2.53a.945.945,0,0,0,.593-.171.657.657,0,0,0,.22-.553.711.711,0,0,0-.224-.577.887.887,0,0,0-.59-.186H1.513Z" transform="translate(0 -46.567)" fill="#fff"/>
        <path id="패스_10391" data-name="패스 10391" d="M13.861,78.046a2.826,2.826,0,0,1,.561-.964,2.559,2.559,0,0,1,.906-.647,3.244,3.244,0,0,1,2.407,0,2.556,2.556,0,0,1,.907.646,2.83,2.83,0,0,1,.562.963,3.76,3.76,0,0,1,0,2.366,2.834,2.834,0,0,1-.561.964,2.552,2.552,0,0,1-.907.647,3.24,3.24,0,0,1-2.407,0,2.554,2.554,0,0,1-.907-.646,2.816,2.816,0,0,1-.562-.963,3.76,3.76,0,0,1,0-2.366m1.4,1.825a1.761,1.761,0,0,0,.24.553,1.174,1.174,0,0,0,.423.386,1.375,1.375,0,0,0,1.22,0,1.173,1.173,0,0,0,.422-.387,1.746,1.746,0,0,0,.24-.553,2.645,2.645,0,0,0,.077-.642,2.674,2.674,0,0,0-.078-.643,1.759,1.759,0,0,0-.24-.552,1.187,1.187,0,0,0-.423-.386,1.38,1.38,0,0,0-1.22,0,1.183,1.183,0,0,0-.422.387,1.759,1.759,0,0,0-.24.553,2.714,2.714,0,0,0,0,1.285" transform="translate(-8.319 -46.372)" fill="#fff"/>
        <path id="패스_10392" data-name="패스 10392" d="M33.552,78.388a.934.934,0,0,0-.37-.662,1.308,1.308,0,0,0-.8-.232,1.256,1.256,0,0,0-.61.143,1.177,1.177,0,0,0-.422.386,1.754,1.754,0,0,0-.24.553,2.714,2.714,0,0,0,0,1.285,1.758,1.758,0,0,0,.24.553,1.181,1.181,0,0,0,.423.386,1.249,1.249,0,0,0,.61.142,1.158,1.158,0,0,0,.829-.285,1.173,1.173,0,0,0,.341-.789h1.513a2.708,2.708,0,0,1-.24,1,2.206,2.206,0,0,1-.561.748,2.484,2.484,0,0,1-.825.468,3.121,3.121,0,0,1-1.024.163,2.937,2.937,0,0,1-1.179-.231,2.715,2.715,0,0,1-.923-.646,2.831,2.831,0,0,1-.59-.967,3.523,3.523,0,0,1,0-2.358,2.851,2.851,0,0,1,.589-.968,2.719,2.719,0,0,1,.923-.647,2.935,2.935,0,0,1,1.178-.233,3.12,3.12,0,0,1,.943.146,2.785,2.785,0,0,1,.846.435,2.258,2.258,0,0,1,.615.7,1.96,1.96,0,0,1,.249.914Z" transform="translate(-17.964 -46.366)" fill="#fff"/>
        <path id="패스_10393" data-name="패스 10393" d="M44.907,76.494h1.512v2.228l1.91-2.229,1.878,0-2.145,2.287L50.48,82.3H48.6l-1.563-2.438-.617.651V82.3H44.91Z" transform="translate(-27.327 -46.547)" fill="#fff"/>
        <path id="패스_10394" data-name="패스 10394" d="M59.883,76.486l4.627,0v1.211l-3.114,0v1.016l2.846,0v1.171l-2.846,0V80.99l3.2,0v1.3l-4.708,0Z" transform="translate(-36.441 -46.543)" fill="#fff"/>
        <path id="패스_10395" data-name="패스 10395" d="M78.132,77.775H76.4l0,4.5H74.89l0-4.5H73.156v-1.3l4.976,0Z" transform="translate(-44.517 -46.537)" fill="#fff"/>
        <path id="패스_10396" data-name="패스 10396" d="M93.538,78.351a.934.934,0,0,0-.37-.662,1.307,1.307,0,0,0-.8-.232,1.254,1.254,0,0,0-.61.143,1.177,1.177,0,0,0-.422.386,1.754,1.754,0,0,0-.24.553,2.714,2.714,0,0,0,0,1.285,1.758,1.758,0,0,0,.24.553,1.185,1.185,0,0,0,.423.386,1.255,1.255,0,0,0,.61.142,1.156,1.156,0,0,0,.829-.285,1.171,1.171,0,0,0,.341-.789h1.513a2.709,2.709,0,0,1-.24,1,2.206,2.206,0,0,1-.561.748,2.49,2.49,0,0,1-.825.468,3.131,3.131,0,0,1-1.024.163,2.94,2.94,0,0,1-1.179-.231,2.715,2.715,0,0,1-.923-.646,2.831,2.831,0,0,1-.59-.967,3.523,3.523,0,0,1,0-2.358,2.85,2.85,0,0,1,.589-.968,2.719,2.719,0,0,1,.923-.647,2.936,2.936,0,0,1,1.179-.233,3.119,3.119,0,0,1,.943.146,2.785,2.785,0,0,1,.846.435,2.253,2.253,0,0,1,.615.7,1.96,1.96,0,0,1,.249.914Z" transform="translate(-54.468 -46.344)" fill="#fff"/>
        <path id="패스_10397" data-name="패스 10397" d="M105.357,77.99a2.826,2.826,0,0,1,.561-.964,2.559,2.559,0,0,1,.906-.647,3.246,3.246,0,0,1,2.407,0,2.563,2.563,0,0,1,.907.646,2.829,2.829,0,0,1,.561.963,3.76,3.76,0,0,1,0,2.366,2.834,2.834,0,0,1-.56.964,2.552,2.552,0,0,1-.907.647,3.24,3.24,0,0,1-2.407,0,2.555,2.555,0,0,1-.907-.646,2.817,2.817,0,0,1-.562-.963,3.759,3.759,0,0,1,0-2.366m1.4,1.825a1.765,1.765,0,0,0,.24.553,1.174,1.174,0,0,0,.423.386,1.375,1.375,0,0,0,1.22,0,1.173,1.173,0,0,0,.422-.387,1.747,1.747,0,0,0,.24-.553,2.646,2.646,0,0,0,.077-.642,2.674,2.674,0,0,0-.078-.643,1.76,1.76,0,0,0-.24-.552,1.187,1.187,0,0,0-.423-.386,1.38,1.38,0,0,0-1.22,0,1.183,1.183,0,0,0-.422.387,1.755,1.755,0,0,0-.24.553,2.714,2.714,0,0,0,0,1.285" transform="translate(-63.998 -46.338)" fill="#fff"/>
        <path id="패스_10398" data-name="패스 10398" d="M121.9,76.445h2.228l1,3.87h.016l1-3.871,2.228,0,0,5.806h-1.423l0-4.407h-.016l-1.217,4.408h-1.155l-1.222-4.406h-.016l0,4.407h-1.423Z" transform="translate(-74.183 -46.517)" fill="#fff"/>
        <path id="패스_10399" data-name="패스 10399" d="M141.118,76.438l2.756,0a3.075,3.075,0,0,1,.8.1,1.873,1.873,0,0,1,.667.325,1.58,1.58,0,0,1,.46.585,2,2,0,0,1,.171.858,1.92,1.92,0,0,1-.548,1.521,2.277,2.277,0,0,1-1.549.481h-1.244v1.935h-1.512Zm1.514,2.7h1.016a.942.942,0,0,0,.593-.171.658.658,0,0,0,.22-.554.711.711,0,0,0-.224-.577.887.887,0,0,0-.59-.187h-1.016Z" transform="translate(-85.875 -46.514)" fill="#fff"/>
        <path id="패스_10400" data-name="패스 10400" d="M154.47,76.428h1.537l2.175,5.8H156.6l-.358-1.041h-2.024l-.366,1.041H152.3Zm.1,3.643h1.317l-.644-2.032h-.016Z" transform="translate(-92.681 -46.509)" fill="#fff"/>
        <path id="패스_10401" data-name="패스 10401" d="M168.39,76.418h1.553l2.018,3.577h.016l0-3.578H173.4l0,5.806h-1.553L169.83,78.6h-.016l0,3.619h-1.423Z" transform="translate(-102.471 -46.501)" fill="#fff"/>
        <path id="패스_10402" data-name="패스 10402" d="M185.728,80.05v2.163h-1.513V80.051L182.1,76.409h1.716l1.156,2.357,1.154-2.359h1.716Z" transform="translate(-110.814 -46.496)" fill="#fff"/>
        <path id="패스_10403" data-name="패스 10403" d="M19.462,98.635v-.349h2.489v.349H20.914l0,2.764H20.5l0-2.765Z" transform="translate(-11.843 -59.811)" fill="#fff"/>
        <path id="패스_10404" data-name="패스 10404" d="M27.335,102.651a.525.525,0,0,1-.266.056.318.318,0,0,1-.229-.081.349.349,0,0,1-.085-.264.894.894,0,0,1-.356.264,1.232,1.232,0,0,1-.728.045.671.671,0,0,1-.238-.11.52.52,0,0,1-.159-.194.656.656,0,0,1-.059-.29.669.669,0,0,1,.065-.314.573.573,0,0,1,.173-.2.781.781,0,0,1,.244-.115c.092-.026.185-.048.281-.065s.2-.035.29-.046a1.582,1.582,0,0,0,.242-.043.4.4,0,0,0,.166-.083.2.2,0,0,0,.061-.159.371.371,0,0,0-.046-.2.315.315,0,0,0-.118-.114.48.48,0,0,0-.161-.052,1.235,1.235,0,0,0-.177-.013.781.781,0,0,0-.393.089.379.379,0,0,0-.17.338H25.3a.806.806,0,0,1,.088-.354.66.66,0,0,1,.209-.233.881.881,0,0,1,.3-.128,1.573,1.573,0,0,1,.36-.039,2.061,2.061,0,0,1,.3.022.783.783,0,0,1,.273.089.529.529,0,0,1,.2.189.608.608,0,0,1,.074.317v1.157a.862.862,0,0,0,.015.191c.01.041.044.061.1.061a.46.46,0,0,0,.114-.017Zm-.6-1.156a.462.462,0,0,1-.183.076c-.075.016-.155.029-.238.039s-.166.022-.251.034a.924.924,0,0,0-.227.063.411.411,0,0,0-.164.123.346.346,0,0,0-.063.219.3.3,0,0,0,.037.154.308.308,0,0,0,.1.1.4.4,0,0,0,.137.056.73.73,0,0,0,.165.018.885.885,0,0,0,.314-.05.666.666,0,0,0,.214-.126.5.5,0,0,0,.122-.165.421.421,0,0,0,.04-.167Z" transform="translate(-15.345 -61.068)" fill="#fff"/>
        <path id="패스_10405" data-name="패스 10405" d="M32.159,98.295v1.844l1.03-.985h.5l-.894.819.958,1.435h-.471l-.771-1.178-.349.323v.854h-.37l0-3.113Z" transform="translate(-19.343 -59.816)" fill="#fff"/>
        <path id="패스_10406" data-name="패스 10406" d="M39.142,102.524a1.024,1.024,0,0,1-.637.191,1.16,1.16,0,0,1-.469-.087.918.918,0,0,1-.333-.245,1.028,1.028,0,0,1-.2-.375,1.792,1.792,0,0,1-.076-.475,1.363,1.363,0,0,1,.079-.471,1.127,1.127,0,0,1,.22-.37,1,1,0,0,1,.336-.244,1.023,1.023,0,0,1,.425-.087.924.924,0,0,1,.5.124.978.978,0,0,1,.318.316,1.236,1.236,0,0,1,.166.418,1.792,1.792,0,0,1,.037.432H37.817a.9.9,0,0,0,.035.281.636.636,0,0,0,.126.236.619.619,0,0,0,.222.164.767.767,0,0,0,.318.061.643.643,0,0,0,.386-.109.527.527,0,0,0,.2-.332h.366a.9.9,0,0,1-.328.571m-.088-1.448a.635.635,0,0,0-.135-.2.651.651,0,0,0-.2-.135.629.629,0,0,0-.255-.05.642.642,0,0,0-.26.05.606.606,0,0,0-.2.137.668.668,0,0,0-.131.2.765.765,0,0,0-.057.246h1.295a.752.752,0,0,0-.059-.249" transform="translate(-22.774 -61.073)" fill="#fff"/>
        <path id="패스_10407" data-name="패스 10407" d="M47.074,101.417H46.66v-1.273l-1.2-1.841h.493l.932,1.483L47.8,98.3h.471l-1.192,1.84Z" transform="translate(-27.663 -59.821)" fill="#fff"/>
        <path id="패스_10408" data-name="패스 10408" d="M52.108,101.088a1.045,1.045,0,0,1,.21-.375.981.981,0,0,1,.344-.251,1.265,1.265,0,0,1,.944,0,.991.991,0,0,1,.343.251,1.054,1.054,0,0,1,.209.375,1.5,1.5,0,0,1,.07.464,1.48,1.48,0,0,1-.07.462,1.057,1.057,0,0,1-.209.372.968.968,0,0,1-.343.248,1.29,1.29,0,0,1-.944,0,.958.958,0,0,1-.344-.249,1.051,1.051,0,0,1-.209-.373,1.478,1.478,0,0,1-.07-.462,1.494,1.494,0,0,1,.07-.464m.377.828a.761.761,0,0,0,.15.266.649.649,0,0,0,.224.164.685.685,0,0,0,.545,0,.662.662,0,0,0,.225-.163.766.766,0,0,0,.15-.266,1.241,1.241,0,0,0,0-.728.774.774,0,0,0-.15-.268.641.641,0,0,0-.224-.166.684.684,0,0,0-.545,0,.649.649,0,0,0-.225.166.791.791,0,0,0-.151.268,1.241,1.241,0,0,0,0,.728" transform="translate(-31.667 -61.079)" fill="#fff"/>
        <path id="패스_10409" data-name="패스 10409" d="M60.483,102.762V102.4h-.009a.756.756,0,0,1-.3.307.9.9,0,0,1-.432.1,1.009,1.009,0,0,1-.37-.06.588.588,0,0,1-.24-.168.628.628,0,0,1-.128-.259,1.382,1.382,0,0,1-.037-.334v-1.482h.371v1.526a.448.448,0,0,0,.122.332.453.453,0,0,0,.335.123.762.762,0,0,0,.294-.052.555.555,0,0,0,.207-.148.644.644,0,0,0,.124-.225.907.907,0,0,0,.042-.281v-1.273h.37l0,2.254Z" transform="translate(-35.883 -61.162)" fill="#fff"/>
        <path id="패스_10410" data-name="패스 10410" d="M65.7,100.43v.475h.009a1,1,0,0,1,.332-.406.832.832,0,0,1,.5-.122v.393a1.042,1.042,0,0,0-.38.061.6.6,0,0,0-.253.179.735.735,0,0,0-.14.285,1.567,1.567,0,0,0-.044.386v1h-.371l0-2.254Z" transform="translate(-39.766 -61.083)" fill="#fff"/>
        <path id="패스_10411" data-name="패스 10411" d="M72.966,98.321a1.553,1.553,0,0,1,1.107.367,1.468,1.468,0,0,1,.388,1.116,2.525,2.525,0,0,1-.088.7,1.3,1.3,0,0,1-.27.51,1.173,1.173,0,0,1-.467.316,1.866,1.866,0,0,1-.671.108H71.9l0-3.113ZM73,101.086q.07,0,.175-.011a1,1,0,0,0,.222-.052,1.037,1.037,0,0,0,.234-.12.788.788,0,0,0,.207-.213,1.214,1.214,0,0,0,.151-.338,1.779,1.779,0,0,0,.059-.491,2.1,2.1,0,0,0-.054-.5.963.963,0,0,0-.179-.375.784.784,0,0,0-.32-.236,1.282,1.282,0,0,0-.484-.081h-.7l0,2.416Z" transform="translate(-43.751 -59.832)" fill="#fff"/>
        <path id="패스_10412" data-name="패스 10412" d="M80.121,100.44v.475h.009a1,1,0,0,1,.332-.406.832.832,0,0,1,.5-.122v.393a1.039,1.039,0,0,0-.379.061.6.6,0,0,0-.253.179.735.735,0,0,0-.14.285,1.565,1.565,0,0,0-.044.386v1h-.371l0-2.254Z" transform="translate(-48.544 -61.09)" fill="#fff"/>
        <path id="패스_10413" data-name="패스 10413" d="M84.942,102.555a1.024,1.024,0,0,1-.637.191,1.16,1.16,0,0,1-.469-.087.923.923,0,0,1-.334-.245,1.033,1.033,0,0,1-.2-.375,1.791,1.791,0,0,1-.076-.475,1.363,1.363,0,0,1,.079-.471,1.127,1.127,0,0,1,.22-.37,1,1,0,0,1,.336-.244,1.023,1.023,0,0,1,.425-.087.924.924,0,0,1,.5.124.978.978,0,0,1,.318.316,1.236,1.236,0,0,1,.166.418,1.792,1.792,0,0,1,.037.432H83.617a.9.9,0,0,0,.035.281.636.636,0,0,0,.126.236.625.625,0,0,0,.222.164.767.767,0,0,0,.318.061.643.643,0,0,0,.386-.109.526.526,0,0,0,.2-.331h.366a.9.9,0,0,1-.328.571m-.088-1.448a.635.635,0,0,0-.135-.2.651.651,0,0,0-.2-.135.629.629,0,0,0-.255-.05.642.642,0,0,0-.26.05.6.6,0,0,0-.2.137.661.661,0,0,0-.131.2.767.767,0,0,0-.057.246h1.295a.752.752,0,0,0-.059-.249" transform="translate(-50.645 -61.092)" fill="#fff"/>
        <path id="패스_10414" data-name="패스 10414" d="M91.547,102.694a.524.524,0,0,1-.266.057.318.318,0,0,1-.229-.081.349.349,0,0,1-.085-.264.885.885,0,0,1-.356.263,1.177,1.177,0,0,1-.438.081,1.161,1.161,0,0,1-.29-.035.671.671,0,0,1-.238-.109.52.52,0,0,1-.159-.194.657.657,0,0,1-.059-.29.671.671,0,0,1,.065-.314.581.581,0,0,1,.173-.2.781.781,0,0,1,.244-.115,2.827,2.827,0,0,1,.281-.065c.1-.02.2-.036.29-.046a1.631,1.631,0,0,0,.242-.043.405.405,0,0,0,.166-.083.2.2,0,0,0,.061-.159.369.369,0,0,0-.046-.2.312.312,0,0,0-.118-.114.48.48,0,0,0-.161-.052,1.18,1.18,0,0,0-.177-.013.785.785,0,0,0-.393.089.379.379,0,0,0-.17.338h-.371a.805.805,0,0,1,.088-.353.661.661,0,0,1,.209-.233.866.866,0,0,1,.3-.128,1.551,1.551,0,0,1,.36-.039,2.114,2.114,0,0,1,.3.022.784.784,0,0,1,.273.09.531.531,0,0,1,.2.189.61.61,0,0,1,.074.317v1.158a.861.861,0,0,0,.015.191c.01.041.044.061.1.061a.442.442,0,0,0,.114-.017Zm-.6-1.156a.456.456,0,0,1-.183.076c-.075.016-.155.029-.238.039s-.166.022-.251.034a.926.926,0,0,0-.227.063.416.416,0,0,0-.164.124.346.346,0,0,0-.063.219.3.3,0,0,0,.037.154.312.312,0,0,0,.1.1.4.4,0,0,0,.137.056.753.753,0,0,0,.165.018.884.884,0,0,0,.314-.05.666.666,0,0,0,.214-.126.5.5,0,0,0,.122-.165.418.418,0,0,0,.04-.167Z" transform="translate(-54.42 -61.095)" fill="#fff"/>
        <path id="패스_10415" data-name="패스 10415" d="M96.294,100.452v.331H96.3a.879.879,0,0,1,1.108-.3.488.488,0,0,1,.24.3.785.785,0,0,1,.3-.283.839.839,0,0,1,.407-.1,1.183,1.183,0,0,1,.308.037.629.629,0,0,1,.235.116.52.52,0,0,1,.153.2.732.732,0,0,1,.054.3v1.652h-.371v-1.478a1.039,1.039,0,0,0-.017-.2.4.4,0,0,0-.065-.159.331.331,0,0,0-.133-.107.535.535,0,0,0-.22-.04.581.581,0,0,0-.431.157.564.564,0,0,0-.157.418v1.4h-.371v-1.478a.973.973,0,0,0-.019-.2.427.427,0,0,0-.068-.159.32.32,0,0,0-.128-.1.507.507,0,0,0-.207-.037.552.552,0,0,0-.277.065.624.624,0,0,0-.187.157.633.633,0,0,0-.1.19.533.533,0,0,0-.033.163v1.4h-.371l0-2.254Z" transform="translate(-58.385 -61.097)" fill="#fff"/>
        <path id="패스_10416" data-name="패스 10416" d="M107.9,99.175a1.545,1.545,0,0,1,.282-.521,1.366,1.366,0,0,1,.467-.361,1.628,1.628,0,0,1,1.3,0,1.37,1.37,0,0,1,.467.362,1.559,1.559,0,0,1,.281.521,2.053,2.053,0,0,1,0,1.225,1.553,1.553,0,0,1-.282.521,1.353,1.353,0,0,1-.467.359,1.652,1.652,0,0,1-1.3,0,1.357,1.357,0,0,1-.466-.36,1.539,1.539,0,0,1-.281-.521,2.053,2.053,0,0,1,0-1.225m.381,1.077a1.252,1.252,0,0,0,.192.412.981.981,0,0,0,.335.295,1.13,1.13,0,0,0,.977,0,.98.98,0,0,0,.336-.294,1.263,1.263,0,0,0,.192-.412,1.8,1.8,0,0,0,.061-.464,1.776,1.776,0,0,0-.061-.464,1.26,1.26,0,0,0-.191-.412.981.981,0,0,0-.335-.295,1.127,1.127,0,0,0-.977,0,.985.985,0,0,0-.335.294,1.274,1.274,0,0,0-.193.412,1.8,1.8,0,0,0,0,.929" transform="translate(-65.605 -59.733)" fill="#fff"/>
        <path id="패스_10417" data-name="패스 10417" d="M118.3,102.8v-.358h-.009a.758.758,0,0,1-.3.307.9.9,0,0,1-.432.1,1,1,0,0,1-.37-.059.592.592,0,0,1-.24-.168.637.637,0,0,1-.128-.26,1.4,1.4,0,0,1-.037-.334v-1.482h.371v1.526a.448.448,0,0,0,.122.332.455.455,0,0,0,.335.122.758.758,0,0,0,.295-.052.566.566,0,0,0,.207-.148.646.646,0,0,0,.124-.225.908.908,0,0,0,.042-.281v-1.273h.37l0,2.254Z" transform="translate(-71.068 -61.186)" fill="#fff"/>
        <path id="패스_10418" data-name="패스 10418" d="M123.794,99.5v.327h-.449v1.4a.415.415,0,0,0,.011.1.1.1,0,0,0,.042.061.183.183,0,0,0,.085.029,1.266,1.266,0,0,0,.142.006h.17v.327h-.284a1.31,1.31,0,0,1-.246-.02.362.362,0,0,1-.166-.072.308.308,0,0,1-.094-.148.871.871,0,0,1-.03-.253V99.827h-.384V99.5h.384v-.676h.371V99.5Z" transform="translate(-74.601 -60.138)" fill="#fff"/>
        <path id="패스_10419" data-name="패스 10419" d="M129.341,101.14a1.044,1.044,0,0,1,.209-.375.985.985,0,0,1,.344-.251,1.265,1.265,0,0,1,.944,0,.993.993,0,0,1,.342.251,1.049,1.049,0,0,1,.209.375,1.5,1.5,0,0,1,.069.464,1.476,1.476,0,0,1-.07.462,1.052,1.052,0,0,1-.209.373.975.975,0,0,1-.343.248,1.291,1.291,0,0,1-.944,0,.955.955,0,0,1-.344-.249,1.047,1.047,0,0,1-.209-.373,1.565,1.565,0,0,1,0-.926m.377.828a.755.755,0,0,0,.15.266.653.653,0,0,0,.224.164.685.685,0,0,0,.545,0,.66.66,0,0,0,.225-.164.768.768,0,0,0,.15-.266,1.13,1.13,0,0,0,.055-.364,1.119,1.119,0,0,0-.055-.364.769.769,0,0,0-.15-.268.634.634,0,0,0-.224-.166.684.684,0,0,0-.545,0,.652.652,0,0,0-.225.166.8.8,0,0,0-.151.268,1.236,1.236,0,0,0,0,.728" transform="translate(-78.666 -61.111)" fill="#fff"/>
        <path id="패스_10420" data-name="패스 10420" d="M135.622,99.5V99.17H136v-.336a.528.528,0,0,1,.159-.417.681.681,0,0,1,.465-.141.937.937,0,0,1,.12.009.644.644,0,0,1,.12.026v.323a.454.454,0,0,0-.1-.024.936.936,0,0,0-.1-.007.358.358,0,0,0-.21.052.232.232,0,0,0-.074.2v.314h.436V99.5h-.436l0,1.927H136l0-1.928Z" transform="translate(-82.531 -59.805)" fill="#fff"/>
        <path id="패스_10421" data-name="패스 10421" d="M143.891,98.37a.966.966,0,0,1,.712.243,1.072,1.072,0,0,1,0,1.358.948.948,0,0,1-.713.239h-.951v1.273h-.414l0-3.113Zm-.141,1.491a.739.739,0,0,0,.517-.144.549.549,0,0,0,.164-.427.541.541,0,0,0-.163-.425.761.761,0,0,0-.517-.146h-.811V99.86Z" transform="translate(-86.731 -59.861)" fill="#fff"/>
        <path id="패스_10422" data-name="패스 10422" d="M149.568,101.153a1.045,1.045,0,0,1,.21-.375.981.981,0,0,1,.344-.251,1.265,1.265,0,0,1,.944,0,.991.991,0,0,1,.342.251,1.054,1.054,0,0,1,.209.375,1.5,1.5,0,0,1,.07.464,1.481,1.481,0,0,1-.07.462,1.057,1.057,0,0,1-.209.372.968.968,0,0,1-.342.248,1.291,1.291,0,0,1-.944,0,.959.959,0,0,1-.344-.249,1.051,1.051,0,0,1-.209-.373,1.478,1.478,0,0,1-.07-.462,1.494,1.494,0,0,1,.07-.464m.377.828a.761.761,0,0,0,.15.266.654.654,0,0,0,.224.164.685.685,0,0,0,.545,0,.662.662,0,0,0,.225-.163.766.766,0,0,0,.15-.266,1.241,1.241,0,0,0,0-.728.774.774,0,0,0-.15-.268.641.641,0,0,0-.224-.166.684.684,0,0,0-.545,0,.649.649,0,0,0-.225.166.791.791,0,0,0-.151.268,1.241,1.241,0,0,0,0,.728" transform="translate(-90.975 -61.119)" fill="#fff"/>
        <path id="패스_10423" data-name="패스 10423" d="M157.585,100.885a.563.563,0,0,0-.375-.118.688.688,0,0,0-.336.074.6.6,0,0,0-.216.2.834.834,0,0,0-.116.281,1.57,1.57,0,0,0-.035.329,1.258,1.258,0,0,0,.037.305.817.817,0,0,0,.115.264.584.584,0,0,0,.2.186.622.622,0,0,0,.3.07.607.607,0,0,0,.429-.144.652.652,0,0,0,.19-.406h.379a1.034,1.034,0,0,1-.312.645.978.978,0,0,1-.682.227,1.182,1.182,0,0,1-.456-.083.883.883,0,0,1-.331-.236,1.015,1.015,0,0,1-.2-.364,1.521,1.521,0,0,1-.067-.464,1.661,1.661,0,0,1,.066-.473,1.1,1.1,0,0,1,.2-.384.93.93,0,0,1,.334-.257,1.085,1.085,0,0,1,.467-.094,1.343,1.343,0,0,1,.359.046.879.879,0,0,1,.3.142.771.771,0,0,1,.211.242.88.88,0,0,1,.1.346h-.384a.567.567,0,0,0-.183-.331" transform="translate(-95.002 -61.121)" fill="#fff"/>
        <path id="패스_10424" data-name="패스 10424" d="M163.057,98.383v1.844l1.03-.985h.5l-.894.819.958,1.436h-.471l-.771-1.178-.349.323v.854h-.371l0-3.113Z" transform="translate(-98.999 -59.869)" fill="#fff"/>
        <path id="패스_10425" data-name="패스 10425" d="M170.039,102.612a1.024,1.024,0,0,1-.637.192,1.167,1.167,0,0,1-.469-.087.923.923,0,0,1-.333-.245,1.027,1.027,0,0,1-.2-.375,1.792,1.792,0,0,1-.076-.475,1.364,1.364,0,0,1,.079-.471,1.125,1.125,0,0,1,.22-.37,1,1,0,0,1,.336-.244,1.03,1.03,0,0,1,.425-.087.924.924,0,0,1,.5.124.983.983,0,0,1,.318.317,1.237,1.237,0,0,1,.166.418,1.79,1.79,0,0,1,.037.431h-1.688a.9.9,0,0,0,.035.281.636.636,0,0,0,.126.236.619.619,0,0,0,.222.164.773.773,0,0,0,.318.061.642.642,0,0,0,.386-.109.527.527,0,0,0,.2-.332h.366a.9.9,0,0,1-.328.571m-.088-1.447a.641.641,0,0,0-.135-.2.65.65,0,0,0-.2-.135.622.622,0,0,0-.255-.05.642.642,0,0,0-.26.05.6.6,0,0,0-.2.137.663.663,0,0,0-.131.2.762.762,0,0,0-.057.246h1.295a.753.753,0,0,0-.059-.248" transform="translate(-102.43 -61.127)" fill="#fff"/>
        <path id="패스_10426" data-name="패스 10426" d="M175.431,99.535v.327h-.449v1.4a.412.412,0,0,0,.011.1.106.106,0,0,0,.042.061.183.183,0,0,0,.085.029,1.262,1.262,0,0,0,.142.006h.17v.327h-.284a1.312,1.312,0,0,1-.246-.02.362.362,0,0,1-.166-.072.307.307,0,0,1-.094-.148.873.873,0,0,1-.03-.253V99.862h-.384v-.327h.384v-.676h.371v.676Z" transform="translate(-106.024 -60.159)" fill="#fff"/>
        <g id="그룹_18965" data-name="그룹 18965" transform="translate(25.399)" opacity="0.64">
          <g id="그룹_18964" data-name="그룹 18964">
            <g id="그룹_18963" data-name="그룹 18963" clip-path="url(#clip-path-3)">
              <path id="패스_10427" data-name="패스 10427" d="M78,7.824,64.882,0V16.617Z" transform="translate(-64.882 0)" fill="#fff"/>
            </g>
          </g>
        </g>
        <path id="패스_10428" data-name="패스 10428" d="M78.173,7.719l-13.291,8.9v.023L78,25.126,91.11,16.641V0Z" transform="translate(-39.483 0)" fill="#fff"/>
      </g>
    </g>
  </g>
</svg>
