<svg id="그룹_59025" data-name="그룹 59025" xmlns="http://www.w3.org/2000/svg" xmlns:xlink="http://www.w3.org/1999/xlink" width="471.35" height="82.516" viewBox="0 0 471.35 82.516">
  <defs>
    <linearGradient id="linear-gradient" x1="0.5" x2="0.5" y2="1" gradientUnits="objectBoundingBox">
      <stop offset="0" stop-color="#fff" stop-opacity="0.169"/>
      <stop offset="1" stop-color="#fff" stop-opacity="0.09"/>
    </linearGradient>
  </defs>
  <path id="패스_11758" data-name="패스 11758" d="M88.819,14.788l39.117.048A44.037,44.037,0,0,1,139.3,16.286a26.625,26.625,0,0,1,9.464,4.613,22.387,22.387,0,0,1,6.515,8.323,28.3,28.3,0,0,1,2.4,12.175q0,14.767-7.823,21.568t-22,6.777H110.2l-.024,27.441H88.7l.1-82.442Zm21.425,38.356h14.434c3.543,0,6.349-.785,8.418-2.4,2.093-1.617,3.115-4.233,3.139-7.847,0-3.686-1.046-6.42-3.163-8.2a12.535,12.535,0,0,0-8.37-2.663H110.268l-.024,21.092Z" transform="translate(-88.7 -14.74)" fill="url(#linear-gradient)"/>
  <path id="패스_11759" data-name="패스 11759" d="M122.406,39.776a38.221,38.221,0,0,1,7.657-13.1A34.651,34.651,0,0,1,142.428,17.9a44.174,44.174,0,0,1,32.768.024,34.794,34.794,0,0,1,12.318,8.822,38.432,38.432,0,0,1,7.633,13.126,48.526,48.526,0,0,1,2.592,16.1,48.526,48.526,0,0,1-2.616,16.1,38.6,38.6,0,0,1-7.657,13.1,35,35,0,0,1-12.365,8.8,44.173,44.173,0,0,1-32.768-.024,34.794,34.794,0,0,1-12.318-8.822A38.428,38.428,0,0,1,122.382,72a48.524,48.524,0,0,1-2.592-16.1,48.528,48.528,0,0,1,2.616-16.1Zm19,24.873a23.909,23.909,0,0,0,3.258,7.538,15.885,15.885,0,0,0,5.754,5.255,18.738,18.738,0,0,0,16.6.024,16.079,16.079,0,0,0,5.755-5.255,24.127,24.127,0,0,0,3.281-7.514,36.713,36.713,0,0,0,.024-17.5,23.545,23.545,0,0,0-3.258-7.514,16.36,16.36,0,0,0-5.755-5.279,18.738,18.738,0,0,0-16.6-.024,16.079,16.079,0,0,0-5.755,5.255,24.126,24.126,0,0,0-3.281,7.514,36.593,36.593,0,0,0-1.07,8.751A35.418,35.418,0,0,0,141.405,64.649Z" transform="translate(-45.861 -14.709)" fill="url(#linear-gradient)"/>
  <path id="패스_11760" data-name="패스 11760" d="M210.306,44.663a12.7,12.7,0,0,0-5.017-9.012c-2.83-2.116-6.468-3.163-10.891-3.163a17.114,17.114,0,0,0-8.3,1.926,16.078,16.078,0,0,0-5.754,5.255,24.124,24.124,0,0,0-3.282,7.514,36.712,36.712,0,0,0-.024,17.5,23.912,23.912,0,0,0,3.258,7.538,15.886,15.886,0,0,0,5.755,5.255,17.12,17.12,0,0,0,8.3,1.95q7.2,0,11.295-3.852c2.735-2.568,4.28-6.159,4.661-10.724H230.9a37.124,37.124,0,0,1-3.281,13.578,30.015,30.015,0,0,1-7.657,10.177,34.117,34.117,0,0,1-11.247,6.349,41.869,41.869,0,0,1-13.935,2.188,40.277,40.277,0,0,1-16.051-3.163,36.825,36.825,0,0,1-12.555-8.822,38.543,38.543,0,0,1-8.013-13.174A46.459,46.459,0,0,1,155.4,55.934a45.923,45.923,0,0,1,2.782-16.051,38.869,38.869,0,0,1,8.038-13.15A37.027,37.027,0,0,1,178.8,17.959a40.268,40.268,0,0,1,16.051-3.139,42.33,42.33,0,0,1,12.841,2A38.029,38.029,0,0,1,219.2,22.738a30.777,30.777,0,0,1,8.347,9.535,26.748,26.748,0,0,1,3.353,12.46H210.306Z" transform="translate(3.207 -14.629)" fill="url(#linear-gradient)"/>
  <path id="패스_11761" data-name="패스 11761" d="M191.425,14.814H212.85L212.8,46.392l27.108-31.531H266.52L236.082,47.225l34.147,49.912H243.62L221.553,62.515l-8.774,9.2V97.066l-21.449-.024.1-82.252Z" transform="translate(52.715 -14.675)" fill="url(#linear-gradient)"/>
  <path id="패스_11762" data-name="패스 11762" d="M226.865,14.8l65.559.071V32.04l-44.134-.048V46.4l40.306.048v16.6L248.242,63v15.67l45.252.048V97.147l-66.724-.071.1-82.252Z" transform="translate(101.55 -14.659)" fill="url(#linear-gradient)"/>
  <path id="패스_11763" data-name="패스 11763" d="M327.844,33.3H303.256l-.071,63.918H281.712l.072-63.966H257.22V14.75l70.624.071V33.274Z" transform="translate(143.506 -14.725)" fill="url(#linear-gradient)"/>
</svg>
