<svg xmlns="http://www.w3.org/2000/svg" width="36" height="36" viewBox="0 0 36 36">
  <g id="btn_posting" transform="translate(-105.203 -142.84)">
    <path id="패스_2476" data-name="패스 2476" d="M135.312,142.84H111.093a5.908,5.908,0,0,0-5.89,5.891v24.218a5.908,5.908,0,0,0,5.89,5.891h24.219a5.908,5.908,0,0,0,5.891-5.891V148.731A5.908,5.908,0,0,0,135.312,142.84Zm-11.868,31.568-3.024-3.576h6Zm4.225-4.968H119.2l-3.144-3.792h14.783Zm3.551-5.28H115.6v-15.7H131.22Z" fill="#42d31a"/>
    <path id="패스_2477" data-name="패스 2477" d="M122.256,156.22l2.244,3.008h2.16v-5.9H124.5v3.008l-2.244-3.008H120.1v5.9h2.16Z" fill="#42d31a"/>
  </g>
</svg>
