<svg id="btn_blog" xmlns="http://www.w3.org/2000/svg" width="41.854" height="36" viewBox="0 0 41.854 36">
  <g id="그룹_913" data-name="그룹 913" transform="translate(0 0)">
    <path id="패스_2228" data-name="패스 2228" d="M947.211,778.02H916.555a5.6,5.6,0,0,0-5.6,5.6v18.195a5.6,5.6,0,0,0,5.6,5.6h10.828l3.683,5.854s.253.752.867.752h0c.614,0,.867-.752.867-.752l3.683-5.854h10.728a5.6,5.6,0,0,0,5.6-5.6V783.619A5.6,5.6,0,0,0,947.211,778.02Z" transform="translate(-910.956 -778.02)" fill="#42d31a"/>
  </g>
  <g id="그룹_914" data-name="그룹 914" transform="translate(5.082 8.553)">
    <path id="패스_2229" data-name="패스 2229" d="M930.83,793.208v7h2.451v-7.072s.282-3.456-3.633-3.615v2.469S930.83,792.255,930.83,793.208Z" transform="translate(-920.83 -789.522)" fill="#fff"/>
    <path id="패스_2230" data-name="패스 2230" d="M952.643,801.613c2.151,0,2.452-.957,2.452-.957.017,2.363-1.517,2.222-1.517,2.222h-.67v2.328h1.111a3.5,3.5,0,0,0,3.615-3.593v-7.464h-2.487v.758a2.5,2.5,0,0,0-2.134-.953,3.486,3.486,0,0,0-3.421,3.333v1.129A3.232,3.232,0,0,0,952.643,801.613Zm1.094-5.3a1.517,1.517,0,1,1-1.517,1.517A1.516,1.516,0,0,1,953.737,796.314Z" transform="translate(-925.944 -790.657)" fill="#fff"/>
    <path id="패스_2231" data-name="패스 2231" d="M940.93,801.648a3.8,3.8,0,1,0-4.108-3.783A3.956,3.956,0,0,0,940.93,801.648Zm0-5.335a1.552,1.552,0,1,1-1.552,1.552A1.552,1.552,0,0,1,940.93,796.313Z" transform="translate(-922.669 -790.691)" fill="#fff"/>
    <path id="패스_2232" data-name="패스 2232" d="M920.294,799.708a2.876,2.876,0,0,0,2.081.882s3.439-.1,3.456-3.421c0,0,.463-3.887-3.245-4.233,0,0-1.7-.016-2.293.988v-3.95s-2.349.03-2.5.006v10.328h2.5Zm1.521-4.3a1.441,1.441,0,1,1-1.441,1.441A1.442,1.442,0,0,1,921.815,795.41Z" transform="translate(-917.79 -789.638)" fill="#fff"/>
  </g>
</svg>
