<svg id="_레이어_1-2" xmlns="http://www.w3.org/2000/svg" xmlns:xlink="http://www.w3.org/1999/xlink" width="223.548" height="26.641" viewBox="0 0 223.548 26.641">
  <defs>
    <linearGradient id="linear-gradient" x1="-0.118" y1="0.24" x2="1.048" y2="1.188" gradientUnits="objectBoundingBox">
      <stop offset="0" stop-color="#003fb8"/>
      <stop offset="1" stop-color="#010da2"/>
    </linearGradient>
    <linearGradient id="linear-gradient-2" x1="0.766" y1="0.156" x2="0.195" y2="1.241" gradientUnits="objectBoundingBox">
      <stop offset="0" stop-color="#0055fb"/>
      <stop offset="1" stop-color="#0038c5"/>
    </linearGradient>
  </defs>
  <path id="패스_11756" data-name="패스 11756" d="M14.337,8.555,0,0V17.621Z" fill="url(#linear-gradient)"/>
  <path id="패스_11757" data-name="패스 11757" d="M0,17.621v.025l13.906,9,13.906-9V0" fill="url(#linear-gradient-2)"/>
  <g id="그룹_50174" data-name="그룹 50174" transform="translate(36.819 6.118)">
    <path id="패스_11758" data-name="패스 11758" d="M88.721,14.748l6.828.008a7.687,7.687,0,0,1,1.984.253,4.648,4.648,0,0,1,1.652.805,3.908,3.908,0,0,1,1.137,1.453,4.941,4.941,0,0,1,.419,2.125,4.737,4.737,0,0,1-1.366,3.765,5.632,5.632,0,0,1-3.84,1.183H92.452l0,4.79H88.7l.017-14.391Zm3.74,6.7h2.52a2.325,2.325,0,0,0,1.469-.419A1.635,1.635,0,0,0,97,19.655a1.767,1.767,0,0,0-.552-1.432,2.188,2.188,0,0,0-1.461-.465h-2.52l0,3.682Z" transform="translate(-88.7 -14.74)" fill="#fff"/>
    <path id="패스_11759" data-name="패스 11759" d="M120.247,19.127a6.672,6.672,0,0,1,1.337-2.287,6.049,6.049,0,0,1,2.158-1.532,7.711,7.711,0,0,1,5.72,0,6.074,6.074,0,0,1,2.15,1.54,6.709,6.709,0,0,1,1.332,2.291,8.914,8.914,0,0,1,0,5.62,6.739,6.739,0,0,1-1.337,2.287,6.11,6.11,0,0,1-2.159,1.536,7.711,7.711,0,0,1-5.72,0,6.074,6.074,0,0,1-2.15-1.54,6.708,6.708,0,0,1-1.332-2.291,8.914,8.914,0,0,1,0-5.62Zm3.317,4.342a4.173,4.173,0,0,0,.569,1.316,2.773,2.773,0,0,0,1,.917,3.271,3.271,0,0,0,2.9,0,2.807,2.807,0,0,0,1-.917,4.211,4.211,0,0,0,.573-1.312,6.409,6.409,0,0,0,0-3.055,4.111,4.111,0,0,0-.569-1.312,2.856,2.856,0,0,0-1-.922,3.271,3.271,0,0,0-2.9,0,2.807,2.807,0,0,0-1,.917,4.212,4.212,0,0,0-.573,1.312,6.389,6.389,0,0,0-.187,1.528A6.182,6.182,0,0,0,123.563,23.469Z" transform="translate(-106.885 -14.751)" fill="#fff"/>
    <path id="패스_11760" data-name="패스 11760" d="M164.984,20.029a2.217,2.217,0,0,0-.876-1.573,3.092,3.092,0,0,0-1.9-.552,2.988,2.988,0,0,0-1.449.336,2.807,2.807,0,0,0-1,.917,4.211,4.211,0,0,0-.573,1.312,6.408,6.408,0,0,0,0,3.055,4.174,4.174,0,0,0,.569,1.316,2.773,2.773,0,0,0,1,.917,2.988,2.988,0,0,0,1.449.34,2.551,2.551,0,0,0,2.785-2.545h3.595a6.48,6.48,0,0,1-.573,2.37A5.239,5.239,0,0,1,166.67,27.7a5.955,5.955,0,0,1-1.963,1.108,7.309,7.309,0,0,1-2.432.382,7.031,7.031,0,0,1-2.8-.552,6.428,6.428,0,0,1-2.192-1.54,6.728,6.728,0,0,1-1.4-2.3A8.11,8.11,0,0,1,155.4,22a8.017,8.017,0,0,1,.486-2.8,6.785,6.785,0,0,1,1.4-2.3,6.463,6.463,0,0,1,2.2-1.532,7.029,7.029,0,0,1,2.8-.548,7.389,7.389,0,0,1,2.242.349,6.638,6.638,0,0,1,2.009,1.034,5.372,5.372,0,0,1,1.457,1.665,4.669,4.669,0,0,1,.585,2.175h-3.595Z" transform="translate(-127.713 -14.787)" fill="#fff"/>
    <path id="패스_11761" data-name="패스 11761" d="M191.347,14.794h3.74l-.008,5.512,4.732-5.5h4.645l-5.313,5.649,5.961,8.713h-4.645l-3.852-6.044-1.532,1.606v4.425l-3.744,0,.017-14.358Z" transform="translate(-148.729 -14.77)" fill="#fff"/>
    <path id="패스_11762" data-name="패스 11762" d="M226.787,14.8l11.444.012v3l-7.7-.008v2.515l7.036.008v2.9l-7.044-.008v2.735l7.9.008v3.217l-11.647-.012.017-14.358Z" transform="translate(-169.458 -14.775)" fill="#fff"/>
    <path id="패스_11763" data-name="패스 11763" d="M269.548,17.988h-4.292l-.012,11.158H261.5l.012-11.166H257.22V14.75l12.328.012v3.221Z" transform="translate(-187.269 -14.746)" fill="#fff"/>
    <path id="패스_11764" data-name="패스 11764" d="M366.777,14.76l5.517.008,2.466,9.584h.042l2.486-9.58,5.517.008-.017,14.375h-3.524l.012-10.917h-.042L376.2,29.147h-2.86L370.338,18.23H370.3l-.012,10.913H366.76l.017-14.379Z" transform="translate(-251.339 -14.751)" fill="#fff"/>
    <path id="패스_11765" data-name="패스 11765" d="M440.742,14.76h3.806l5.363,14.391h-3.906l-.884-2.586h-5.014l-.909,2.574H435.35l5.4-14.379Zm.232,9.024h3.263l-1.586-5.035h-.042Z" transform="translate(-291.458 -14.751)" fill="#fff"/>
    <path id="패스_11766" data-name="패스 11766" d="M472.187,14.76h3.848l4.985,8.871h.042l.008-8.862h3.524l-.017,14.383h-3.848l-4.985-8.97H475.7l-.008,8.962H472.17Z" transform="translate(-312.994 -14.751)" fill="#fff"/>
    <path id="패스_11767" data-name="패스 11767" d="M513.264,23.792v5.359l-3.752,0V23.788L504.29,14.76h4.251l2.852,5.849,2.868-5.836h4.25L513.264,23.8Z" transform="translate(-331.782 -14.751)" fill="#fff"/>
    <path id="패스_11768" data-name="패스 11768" d="M305.624,20.029a2.217,2.217,0,0,0-.876-1.573,3.092,3.092,0,0,0-1.9-.552,2.988,2.988,0,0,0-1.449.336,2.808,2.808,0,0,0-1,.917,4.212,4.212,0,0,0-.573,1.312,6.407,6.407,0,0,0,0,3.055,4.174,4.174,0,0,0,.569,1.316,2.773,2.773,0,0,0,1,.917,2.989,2.989,0,0,0,1.449.34,2.551,2.551,0,0,0,2.785-2.545h3.595a6.481,6.481,0,0,1-.573,2.37A5.241,5.241,0,0,1,307.31,27.7a5.955,5.955,0,0,1-1.963,1.108,7.309,7.309,0,0,1-2.432.382,7.031,7.031,0,0,1-2.8-.552,6.429,6.429,0,0,1-2.192-1.54,6.727,6.727,0,0,1-1.4-2.3,8.112,8.112,0,0,1-.482-2.8,8.018,8.018,0,0,1,.486-2.8,6.786,6.786,0,0,1,1.4-2.3,6.464,6.464,0,0,1,2.2-1.532,7.029,7.029,0,0,1,2.8-.548,7.389,7.389,0,0,1,2.242.349,6.639,6.639,0,0,1,2.009,1.034,5.372,5.372,0,0,1,1.457,1.665,4.668,4.668,0,0,1,.585,2.175h-3.595Z" transform="translate(-209.975 -14.787)" fill="#fff"/>
    <path id="패스_11769" data-name="패스 11769" d="M331.047,19.127a6.673,6.673,0,0,1,1.337-2.287,6.048,6.048,0,0,1,2.159-1.532,7.711,7.711,0,0,1,5.72,0,6.074,6.074,0,0,1,2.15,1.54,6.709,6.709,0,0,1,1.332,2.291,8.915,8.915,0,0,1,0,5.62,6.739,6.739,0,0,1-1.337,2.287,6.11,6.11,0,0,1-2.158,1.536,7.711,7.711,0,0,1-5.72,0,6.073,6.073,0,0,1-2.15-1.54,6.707,6.707,0,0,1-1.332-2.291,8.915,8.915,0,0,1,0-5.62Zm3.317,4.342a4.174,4.174,0,0,0,.569,1.316,2.773,2.773,0,0,0,1,.917,3.271,3.271,0,0,0,2.9,0,2.807,2.807,0,0,0,1-.917,4.212,4.212,0,0,0,.573-1.312,6.411,6.411,0,0,0,0-3.055,4.111,4.111,0,0,0-.569-1.312,2.856,2.856,0,0,0-1-.922,3.271,3.271,0,0,0-2.9,0,2.807,2.807,0,0,0-1,.917,4.21,4.21,0,0,0-.573,1.312,6.387,6.387,0,0,0-.187,1.528A6.185,6.185,0,0,0,334.363,23.469Z" transform="translate(-230.183 -14.751)" fill="#fff"/>
    <path id="패스_11770" data-name="패스 11770" d="M410.381,14.748l6.828.008a7.687,7.687,0,0,1,1.984.253,4.648,4.648,0,0,1,1.652.805,3.908,3.908,0,0,1,1.137,1.453,4.941,4.941,0,0,1,.419,2.125,4.737,4.737,0,0,1-1.366,3.765,5.632,5.632,0,0,1-3.84,1.183h-3.084l0,4.79H410.36l.017-14.391Zm3.74,6.7h2.52a2.325,2.325,0,0,0,1.469-.419,1.635,1.635,0,0,0,.548-1.37,1.767,1.767,0,0,0-.552-1.432,2.188,2.188,0,0,0-1.461-.465h-2.52l0,3.682Z" transform="translate(-276.841 -14.74)" fill="#fff"/>
  </g>
</svg>
