<svg xmlns="http://www.w3.org/2000/svg" xmlns:xlink="http://www.w3.org/1999/xlink" width="221.835" height="27.965" viewBox="0 0 221.835 27.965">
  <defs>
    <linearGradient id="linear-gradient" x1="-0.128" y1="0.24" x2="1.038" y2="1.16" gradientUnits="objectBoundingBox">
      <stop offset="0" stop-color="#003fb8"/>
      <stop offset="1" stop-color="#010da2"/>
    </linearGradient>
    <linearGradient id="linear-gradient-2" x1="0.766" y1="0.156" x2="0.195" y2="1.241" gradientUnits="objectBoundingBox">
      <stop offset="0" stop-color="#0055fb"/>
      <stop offset="1" stop-color="#0038c5"/>
    </linearGradient>
  </defs>
  <g id="logo_bk" transform="translate(-576.286 -74.919)">
    <g id="그룹_235" data-name="그룹 235" transform="translate(616.034 81.919)">
      <path id="패스_108" data-name="패스 108" d="M657.037,84.517l6.515.007a7.269,7.269,0,0,1,1.893.242,4.414,4.414,0,0,1,1.575.77,3.746,3.746,0,0,1,1.084,1.385,4.717,4.717,0,0,1,.4,2.028,4.534,4.534,0,0,1-1.3,3.593,5.385,5.385,0,0,1-3.662,1.13l-2.941,0-.006,4.575-3.575,0ZM660.6,90.9l2.4,0a2.226,2.226,0,0,0,1.4-.4,1.552,1.552,0,0,0,.521-1.307,1.682,1.682,0,0,0-.527-1.366,2.1,2.1,0,0,0-1.393-.443l-2.4,0Z" transform="translate(-657.02 -84.25)" fill="#0e141e"/>
      <path id="패스_109" data-name="패스 109" d="M671.151,88.574a6.688,6.688,0,0,1,1.328-2.275,6.051,6.051,0,0,1,2.146-1.526,7.662,7.662,0,0,1,5.69.007,6.03,6.03,0,0,1,2.14,1.53,6.665,6.665,0,0,1,1.324,2.279,8.886,8.886,0,0,1-.005,5.594,6.734,6.734,0,0,1-1.329,2.276,6.034,6.034,0,0,1-2.146,1.526,7.667,7.667,0,0,1-5.69-.006,6.044,6.044,0,0,1-2.14-1.53,6.666,6.666,0,0,1-1.324-2.279,8.881,8.881,0,0,1,.006-5.594Zm3.3,4.32a4.171,4.171,0,0,0,.565,1.307,2.785,2.785,0,0,0,1,.913,3.254,3.254,0,0,0,2.883,0,2.779,2.779,0,0,0,1-.912,4.122,4.122,0,0,0,.569-1.306,6.217,6.217,0,0,0,.184-1.518,6.328,6.328,0,0,0-.18-1.519,4.166,4.166,0,0,0-.565-1.307,2.81,2.81,0,0,0-1-.915,3.262,3.262,0,0,0-2.883,0,2.8,2.8,0,0,0-1,.913,4.15,4.15,0,0,0-.569,1.306,6.421,6.421,0,0,0,0,3.038Z" transform="translate(-658.041 -84.229)" fill="#0e141e"/>
      <path id="패스_110" data-name="패스 110" d="M696.079,89.439a2.214,2.214,0,0,0-.873-1.567,3.1,3.1,0,0,0-1.893-.551,2.962,2.962,0,0,0-1.442.335,2.786,2.786,0,0,0-1,.912,4.15,4.15,0,0,0-.569,1.306,6.4,6.4,0,0,0,0,3.037,4.121,4.121,0,0,0,.565,1.307,2.784,2.784,0,0,0,1,.914,2.958,2.958,0,0,0,1.441.339,2.541,2.541,0,0,0,2.771-2.534l3.575,0a6.4,6.4,0,0,1-.57,2.354,5.234,5.234,0,0,1-1.328,1.767,5.9,5.9,0,0,1-1.952,1.1,7.386,7.386,0,0,1-2.422.381A6.937,6.937,0,0,1,690.593,98a6.423,6.423,0,0,1-2.18-1.53,6.7,6.7,0,0,1-1.391-2.289,8.327,8.327,0,0,1,.006-5.574,6.727,6.727,0,0,1,1.4-2.286,6.424,6.424,0,0,1,2.184-1.526,6.958,6.958,0,0,1,2.786-.544,7.407,7.407,0,0,1,2.23.348,6.575,6.575,0,0,1,2,1.031,5.343,5.343,0,0,1,1.45,1.654,4.648,4.648,0,0,1,.584,2.163Z" transform="translate(-659.225 -84.23)" fill="#0e141e"/>
      <path id="패스_111" data-name="패스 111" d="M701.943,84.567l3.575,0-.006,5.266,4.524-5.26,4.439,0-5.081,5.4,5.7,8.329-4.439-.006-3.684-5.77-1.463,1.537L705.5,98.3l-3.575,0Z" transform="translate(-660.374 -84.254)" fill="#0e141e"/>
      <path id="패스_112" data-name="패스 112" d="M716.92,84.584l10.935.012,0,2.864-7.362-.007,0,2.4,6.728.007,0,2.768-6.727-.007,0,2.615,7.553.008,0,3.075L716.9,98.307Z" transform="translate(-661.492 -84.256)" fill="#0e141e"/>
      <path id="패스_113" data-name="패스 113" d="M741.952,87.688l-4.095,0-.012,10.649-3.575,0,.012-10.649-4.093,0,0-3.075,11.763.013Z" transform="translate(-662.484 -84.257)" fill="#0e141e"/>
      <path id="패스_114" data-name="패스 114" d="M756.065,89.507a2.211,2.211,0,0,0-.872-1.567,3.088,3.088,0,0,0-1.892-.551,2.966,2.966,0,0,0-1.443.334,2.8,2.8,0,0,0-1,.912,4.152,4.152,0,0,0-.569,1.307,6.413,6.413,0,0,0,0,3.037,4.162,4.162,0,0,0,.565,1.307,2.8,2.8,0,0,0,1,.914,2.965,2.965,0,0,0,1.442.338,2.731,2.731,0,0,0,1.961-.671,2.766,2.766,0,0,0,.81-1.863l3.576,0a6.4,6.4,0,0,1-.57,2.354,5.243,5.243,0,0,1-1.328,1.766,5.908,5.908,0,0,1-1.952,1.1,7.411,7.411,0,0,1-2.422.381,6.953,6.953,0,0,1-2.787-.551,6.431,6.431,0,0,1-2.179-1.53,6.7,6.7,0,0,1-1.391-2.29,8.327,8.327,0,0,1,.006-5.574,6.732,6.732,0,0,1,1.4-2.285,6.424,6.424,0,0,1,2.184-1.526,6.935,6.935,0,0,1,2.787-.544,7.337,7.337,0,0,1,2.228.348,6.584,6.584,0,0,1,2,1.03,5.35,5.35,0,0,1,1.45,1.655,4.648,4.648,0,0,1,.584,2.162Z" transform="translate(-663.705 -84.235)" fill="#0e141e"/>
      <path id="패스_115" data-name="패스 115" d="M762.646,88.678a6.693,6.693,0,0,1,1.329-2.276,6.02,6.02,0,0,1,2.146-1.525,7.659,7.659,0,0,1,5.689.006,6.051,6.051,0,0,1,2.141,1.53,6.685,6.685,0,0,1,1.323,2.28,8.878,8.878,0,0,1-.007,5.594,6.692,6.692,0,0,1-1.328,2.275,6.027,6.027,0,0,1-2.145,1.526,7.655,7.655,0,0,1-5.69-.006,6.029,6.029,0,0,1-2.141-1.53,6.647,6.647,0,0,1-1.323-2.279,8.888,8.888,0,0,1,.005-5.594Zm3.3,4.319a4.165,4.165,0,0,0,.565,1.307,2.785,2.785,0,0,0,1,.913,3.254,3.254,0,0,0,2.883,0,2.785,2.785,0,0,0,1-.911A4.156,4.156,0,0,0,771.964,93a6.4,6.4,0,0,0,0-3.038,4.149,4.149,0,0,0-.565-1.307,2.8,2.8,0,0,0-1-.914,3.262,3.262,0,0,0-2.883,0,2.8,2.8,0,0,0-1,.912,4.144,4.144,0,0,0-.569,1.307,6.431,6.431,0,0,0,0,3.037Z" transform="translate(-664.874 -84.237)" fill="#0e141e"/>
      <path id="패스_116" data-name="패스 116" d="M778.941,84.654l5.267.006,2.353,9.151h.039l2.374-9.146,5.266.006-.016,13.723-3.364,0,.012-10.417h-.039l-2.9,10.414-2.729,0-2.871-10.421H782.3l-.012,10.417-3.364,0Z" transform="translate(-666.124 -84.261)" fill="#0e141e"/>
      <path id="패스_117" data-name="패스 117" d="M798.154,84.676l6.516.007a7.257,7.257,0,0,1,1.892.242,4.412,4.412,0,0,1,1.576.77,3.739,3.739,0,0,1,1.084,1.386,4.724,4.724,0,0,1,.4,2.028,4.533,4.533,0,0,1-1.3,3.592,5.388,5.388,0,0,1-3.663,1.13l-2.941,0-.006,4.575-3.574,0Zm3.568,6.386,2.4,0a2.222,2.222,0,0,0,1.4-.4,1.552,1.552,0,0,0,.522-1.307,1.681,1.681,0,0,0-.527-1.365,2.1,2.1,0,0,0-1.393-.444l-2.4,0Z" transform="translate(-667.559 -84.262)" fill="#0e141e"/>
      <path id="패스_118" data-name="패스 118" d="M814.462,84.695l3.632,0,5.115,13.729-3.728,0-.843-2.461-4.785-.006-.868,2.46-3.672,0Zm.22,8.611,3.113,0L816.283,88.5h-.039Z" transform="translate(-668.393 -84.264)" fill="#0e141e"/>
      <path id="패스_119" data-name="패스 119" d="M825.427,84.707l3.671,0,4.757,8.463h.038l.01-8.457,3.364,0-.017,13.723-3.67,0-4.758-8.559h-.038l-.01,8.553-3.364,0Z" transform="translate(-669.595 -84.265)" fill="#0e141e"/>
      <path id="패스_120" data-name="패스 120" d="M847.7,93.342l-.006,5.113-3.575,0,.006-5.112-4.988-8.616,4.056,0,2.722,5.577,2.736-5.57,4.057,0Z" transform="translate(-670.62 -84.266)" fill="#0e141e"/>
    </g>
    <g id="그룹_236" data-name="그룹 236" transform="translate(0 -0.277)">
      <path id="패스_121" data-name="패스 121" d="M590.882,83.9l-14.6-8.708V93.69Z" fill="url(#linear-gradient)"/>
      <path id="패스_122" data-name="패스 122" d="M591.079,83.786l-14.793,9.9v.026l14.6,9.444,14.6-9.444V75.2Z" fill="url(#linear-gradient-2)"/>
    </g>
  </g>
</svg>
