<svg id="logo_footer" xmlns="http://www.w3.org/2000/svg" width="151.958" height="12.014" viewBox="0 0 151.958 12.014">
  <path id="패스_108" data-name="패스 108" d="M657.034,84.517l5.437.006a6.066,6.066,0,0,1,1.58.2,3.684,3.684,0,0,1,1.314.642,3.126,3.126,0,0,1,.905,1.156,3.937,3.937,0,0,1,.334,1.693,3.783,3.783,0,0,1-1.086,3,4.494,4.494,0,0,1-3.056.943l-2.454,0,0,3.818-2.984,0Zm2.977,5.328,2,0a1.858,1.858,0,0,0,1.172-.335,1.3,1.3,0,0,0,.435-1.09,1.4,1.4,0,0,0-.44-1.14,1.757,1.757,0,0,0-1.162-.37l-2.005,0Z" transform="translate(-657.02 -84.295)" fill="#0e141e"/>
  <path id="패스_109" data-name="패스 109" d="M671.076,87.855a5.583,5.583,0,0,1,1.108-1.9,5.049,5.049,0,0,1,1.791-1.273,6.394,6.394,0,0,1,4.748.006,5.032,5.032,0,0,1,1.786,1.276,5.563,5.563,0,0,1,1.105,1.9,7.416,7.416,0,0,1,0,4.668,5.618,5.618,0,0,1-1.109,1.9,5.036,5.036,0,0,1-1.791,1.273,6.4,6.4,0,0,1-4.748-.005,5.044,5.044,0,0,1-1.786-1.277,5.563,5.563,0,0,1-1.105-1.9,7.413,7.413,0,0,1,.005-4.669Zm2.754,3.605a3.481,3.481,0,0,0,.472,1.091,2.324,2.324,0,0,0,.833.762,2.715,2.715,0,0,0,2.406,0,2.319,2.319,0,0,0,.835-.761,3.439,3.439,0,0,0,.475-1.09A5.186,5.186,0,0,0,679,90.2a5.284,5.284,0,0,0-.15-1.268,3.48,3.48,0,0,0-.472-1.09,2.345,2.345,0,0,0-.834-.764,2.722,2.722,0,0,0-2.406,0,2.339,2.339,0,0,0-.834.762,3.464,3.464,0,0,0-.475,1.09,5.36,5.36,0,0,0,0,2.535Z" transform="translate(-660.135 -84.229)" fill="#0e141e"/>
  <path id="패스_110" data-name="패스 110" d="M694.5,88.58a1.848,1.848,0,0,0-.728-1.307,2.59,2.59,0,0,0-1.58-.459,2.472,2.472,0,0,0-1.2.28,2.325,2.325,0,0,0-.834.761,3.462,3.462,0,0,0-.475,1.09,5.34,5.34,0,0,0,0,2.534,3.438,3.438,0,0,0,.472,1.091,2.324,2.324,0,0,0,.832.763,2.468,2.468,0,0,0,1.2.283A2.121,2.121,0,0,0,694.5,91.5l2.984,0a5.34,5.34,0,0,1-.476,1.965,4.368,4.368,0,0,1-1.108,1.475,4.927,4.927,0,0,1-1.629.92,6.164,6.164,0,0,1-2.022.318,5.789,5.789,0,0,1-2.324-.459,5.36,5.36,0,0,1-1.819-1.277,5.6,5.6,0,0,1-1.161-1.91,6.949,6.949,0,0,1,0-4.652,5.614,5.614,0,0,1,1.165-1.907,5.361,5.361,0,0,1,1.822-1.273,5.807,5.807,0,0,1,2.325-.454,6.181,6.181,0,0,1,1.861.29,5.488,5.488,0,0,1,1.667.86A4.459,4.459,0,0,1,697,86.778a3.879,3.879,0,0,1,.487,1.805Z" transform="translate(-663.745 -84.233)" fill="#0e141e"/>
  <path id="패스_111" data-name="패스 111" d="M701.94,84.567l2.984,0-.005,4.395,3.775-4.39,3.7,0-4.24,4.5,4.756,6.951-3.7,0-3.074-4.816L704.915,92.5l0,3.528-2.983,0Z" transform="translate(-667.249 -84.306)" fill="#0e141e"/>
  <path id="패스_112" data-name="패스 112" d="M716.917,84.584l9.126.01,0,2.39-6.144-.006,0,2,5.615.006,0,2.31-5.614-.006,0,2.182,6.3.007,0,2.566-9.287-.011Z" transform="translate(-670.66 -84.31)" fill="#0e141e"/>
  <path id="패스_113" data-name="패스 113" d="M740.005,87.177l-3.417,0-.01,8.887-2.984,0,.01-8.887-3.416,0,0-2.566,9.816.011Z" transform="translate(-673.687 -84.313)" fill="#0e141e"/>
  <path id="패스_114" data-name="패스 114" d="M754.488,88.648a1.845,1.845,0,0,0-.728-1.307,2.577,2.577,0,0,0-1.579-.459,2.475,2.475,0,0,0-1.2.279,2.338,2.338,0,0,0-.834.761,3.466,3.466,0,0,0-.475,1.09,5.35,5.35,0,0,0,0,2.534,3.472,3.472,0,0,0,.472,1.091,2.337,2.337,0,0,0,.833.763,2.474,2.474,0,0,0,1.2.282,2.279,2.279,0,0,0,1.636-.56,2.309,2.309,0,0,0,.676-1.554l2.984,0a5.34,5.34,0,0,1-.476,1.965,4.374,4.374,0,0,1-1.108,1.474,4.93,4.93,0,0,1-1.629.921,6.185,6.185,0,0,1-2.021.318,5.8,5.8,0,0,1-2.326-.459,5.368,5.368,0,0,1-1.819-1.277A5.589,5.589,0,0,1,746.93,92.6a6.95,6.95,0,0,1,0-4.652,5.617,5.617,0,0,1,1.165-1.907,5.362,5.362,0,0,1,1.822-1.273,5.788,5.788,0,0,1,2.326-.454,6.123,6.123,0,0,1,1.859.29,5.5,5.5,0,0,1,1.667.859,4.465,4.465,0,0,1,1.21,1.381,3.879,3.879,0,0,1,.487,1.8Z" transform="translate(-677.409 -84.249)" fill="#0e141e"/>
  <path id="패스_115" data-name="패스 115" d="M762.571,87.959a5.586,5.586,0,0,1,1.109-1.9,5.023,5.023,0,0,1,1.791-1.273,6.391,6.391,0,0,1,4.748,0,5.05,5.05,0,0,1,1.787,1.277,5.578,5.578,0,0,1,1.1,1.9,7.41,7.41,0,0,1-.005,4.668,5.585,5.585,0,0,1-1.108,1.9,5.03,5.03,0,0,1-1.79,1.273,6.388,6.388,0,0,1-4.748-.005,5.031,5.031,0,0,1-1.787-1.277,5.547,5.547,0,0,1-1.1-1.9,7.418,7.418,0,0,1,0-4.668Zm2.755,3.6a3.475,3.475,0,0,0,.472,1.091,2.324,2.324,0,0,0,.833.762,2.716,2.716,0,0,0,2.406,0,2.324,2.324,0,0,0,.835-.761,3.469,3.469,0,0,0,.475-1.09,5.344,5.344,0,0,0,0-2.535,3.461,3.461,0,0,0-.472-1.09,2.335,2.335,0,0,0-.833-.763,2.722,2.722,0,0,0-2.406,0,2.334,2.334,0,0,0-.835.761,3.459,3.459,0,0,0-.475,1.09,5.365,5.365,0,0,0,0,2.534Z" transform="translate(-680.976 -84.252)" fill="#0e141e"/>
  <path id="패스_116" data-name="패스 116" d="M778.938,84.654l4.4.005L785.3,92.3h.032l1.982-7.633,4.395,0-.013,11.453-2.807,0,.01-8.694h-.033l-2.416,8.691-2.277,0-2.4-8.7h-.032l-.01,8.694-2.808,0Z" transform="translate(-684.788 -84.326)" fill="#0e141e"/>
  <path id="패스_117" data-name="패스 117" d="M798.151,84.676l5.438.006a6.056,6.056,0,0,1,1.579.2,3.682,3.682,0,0,1,1.315.642,3.12,3.12,0,0,1,.905,1.157,3.942,3.942,0,0,1,.334,1.693,3.783,3.783,0,0,1-1.086,3,4.5,4.5,0,0,1-3.057.943l-2.454,0,0,3.818-2.983,0Zm2.978,5.329,2,0a1.854,1.854,0,0,0,1.171-.335,1.3,1.3,0,0,0,.436-1.09,1.4,1.4,0,0,0-.44-1.139,1.753,1.753,0,0,0-1.162-.371l-2.005,0Z" transform="translate(-689.164 -84.331)" fill="#0e141e"/>
  <path id="패스_118" data-name="패스 118" d="M813.61,84.695l3.031,0,4.269,11.457-3.111,0-.7-2.054-3.993,0-.724,2.053-3.064,0Zm.184,7.186,2.6,0-1.262-4.011H815.1Z" transform="translate(-691.71 -84.335)" fill="#0e141e"/>
  <path id="패스_119" data-name="패스 119" d="M825.424,84.707l3.063,0,3.97,7.063h.032l.008-7.058,2.807,0-.014,11.453-3.063,0-3.971-7.143h-.032l-.009,7.138-2.807,0Z" transform="translate(-695.376 -84.338)" fill="#0e141e"/>
  <path id="패스_120" data-name="패스 120" d="M846.282,91.916l0,4.267-2.984,0,0-4.267-4.162-7.19,3.385,0,2.272,4.654,2.283-4.649,3.385,0Z" transform="translate(-698.503 -84.342)" fill="#0e141e"/>
</svg>
