<?xml version="1.0" standalone="no"?>
<!DOCTYPE svg PUBLIC "-//W3C//DTD SVG 20010904//EN"
 "http://www.w3.org/TR/2001/REC-SVG-20010904/DTD/svg10.dtd">
<svg version="1.0" xmlns="http://www.w3.org/2000/svg"
 width="936.000000pt" height="936.000000pt" viewBox="0 0 936.000000 936.000000"
 preserveAspectRatio="xMidYMid meet">
<metadata>
Created by potrace 1.11, written by Peter Selinger 2001-2013
</metadata>
<g transform="translate(0.000000,936.000000) scale(0.100000,-0.100000)"
fill="#000000" stroke="none">
<path d="M0 6190 l0 -2971 30 -17 c16 -9 30 -20 30 -24 0 -5 6 -8 14 -8 8 0
21 -6 28 -13 17 -15 126 -87 133 -87 5 0 16 -8 48 -36 7 -5 19 -13 27 -17 37
-18 174 -109 181 -119 3 -6 8 -8 10 -7 2 2 25 -11 51 -29 26 -18 51 -32 56
-32 6 0 12 -3 14 -8 2 -4 28 -23 58 -42 30 -19 57 -37 60 -40 3 -3 17 -11 33
-19 15 -8 27 -18 27 -23 0 -4 5 -8 10 -8 6 0 51 -27 101 -60 49 -33 94 -60 99
-60 6 0 10 -4 10 -10 0 -5 6 -10 13 -10 8 0 22 -9 32 -20 10 -11 23 -20 30
-20 6 0 20 -7 30 -15 11 -9 85 -58 165 -110 80 -51 150 -99 157 -104 7 -6 15
-11 18 -11 3 0 52 -31 109 -69 58 -38 107 -67 110 -64 3 4 6 1 6 -5 0 -6 18
-21 40 -32 22 -11 40 -25 40 -30 0 -6 7 -10 15 -10 9 0 21 -5 28 -11 7 -5 77
-52 157 -104 80 -52 150 -97 155 -102 6 -4 22 -14 37 -22 15 -8 36 -21 45 -30
10 -9 35 -25 56 -36 21 -11 47 -28 57 -37 11 -10 22 -18 25 -18 9 0 120 -74
123 -82 2 -5 7 -8 12 -8 5 0 41 -22 82 -48 40 -26 102 -67 138 -90 36 -22 70
-46 77 -51 7 -6 14 -11 17 -11 5 0 113 -70 219 -141 32 -21 61 -39 66 -39 4 0
16 -9 26 -20 10 -11 22 -20 27 -20 6 0 35 -17 66 -39 32 -21 95 -63 142 -93
186 -120 268 -173 338 -220 40 -26 77 -48 82 -48 6 0 10 -4 10 -10 0 -5 4 -10
9 -10 5 0 56 -31 113 -68 57 -38 132 -87 168 -110 36 -23 72 -46 80 -52 86
-58 259 -167 273 -173 9 -3 17 -11 17 -17 0 -5 6 -10 14 -10 8 0 28 -11 44
-25 17 -14 33 -25 36 -25 4 0 40 -22 82 -50 l75 -50 57 38 c31 20 59 40 60 45
2 4 8 7 14 7 6 0 26 11 44 25 18 14 35 25 38 25 4 0 35 20 70 45 36 25 70 45
75 45 6 0 11 5 11 10 0 6 7 10 15 10 8 0 15 5 15 10 0 6 6 10 13 10 7 0 23 9
35 20 12 11 24 20 27 20 3 0 46 27 95 60 49 33 94 60 100 60 5 0 10 5 10 10 0
6 5 10 10 10 6 0 16 5 23 10 29 25 233 154 240 152 4 -1 7 2 7 7 0 5 9 13 20
16 11 3 26 12 32 18 21 20 97 67 108 67 5 0 10 4 10 8 0 4 15 16 33 27 31 18
174 110 266 171 24 16 51 33 60 39 9 5 31 20 49 33 17 13 32 19 32 15 0 -4 5
0 11 10 5 9 16 17 23 17 7 0 21 9 31 20 10 11 22 17 26 14 5 -3 9 0 9 5 0 6 6
11 14 11 8 0 16 3 18 8 4 9 53 42 91 61 15 8 27 18 27 23 0 4 6 8 13 8 6 0 25
11 41 25 16 13 32 22 36 20 5 -3 10 -1 12 3 3 8 73 55 311 208 59 38 157 102
218 141 61 40 115 73 120 73 5 0 9 4 9 9 0 5 13 14 30 21 17 7 30 16 30 21 0
5 5 9 10 9 6 0 33 16 60 35 27 19 54 35 60 35 5 0 10 5 10 10 0 6 7 10 15 10
8 0 15 5 15 10 0 6 6 10 13 10 7 0 23 9 35 20 12 11 25 20 30 20 4 0 17 8 28
18 10 10 22 19 26 20 10 3 93 56 241 154 65 43 119 78 121 78 2 0 136 87 186
120 8 6 62 40 120 77 58 37 107 71 108 75 2 4 8 8 13 8 10 0 90 50 99 62 3 3
11 8 19 10 8 2 25 13 39 26 14 12 31 22 38 22 8 0 14 4 14 9 0 5 15 16 33 25
25 13 173 108 397 255 15 10 91 60 238 154 l72 47 0 2971 c0 2373 -3 2969 -12
2963 -7 -4 -21 -14 -31 -22 -9 -8 -17 -11 -17 -6 0 5 -4 4 -8 -1 -4 -6 -52
-37 -107 -69 -55 -33 -101 -63 -103 -68 -2 -4 -12 -8 -23 -8 -10 0 -19 -4 -19
-9 0 -5 -6 -11 -12 -13 -13 -3 -394 -227 -438 -257 -14 -10 -45 -28 -70 -42
-25 -13 -47 -27 -50 -30 -3 -3 -21 -14 -40 -24 -19 -10 -37 -21 -40 -24 -7 -9
-81 -51 -112 -64 -16 -6 -28 -15 -28 -19 0 -4 -15 -14 -32 -23 -36 -16 -46
-22 -191 -110 -125 -76 -167 -101 -192 -115 -11 -5 -38 -21 -60 -35 -22 -14
-67 -41 -100 -60 -33 -20 -67 -40 -75 -45 -75 -48 -183 -110 -191 -110 -5 0
-9 -4 -9 -9 0 -5 -11 -12 -25 -15 -14 -4 -25 -11 -25 -16 0 -6 -4 -10 -9 -10
-12 0 -285 -163 -289 -172 -2 -5 -8 -8 -13 -8 -5 0 -77 -40 -160 -90 -82 -49
-154 -90 -159 -90 -6 0 -10 -3 -10 -7 0 -5 -25 -21 -55 -38 -30 -16 -55 -34
-55 -39 0 -5 -3 -7 -6 -3 -3 3 -37 -14 -75 -39 -38 -24 -71 -44 -74 -44 -4 0
-204 -119 -235 -140 -8 -6 -23 -13 -32 -16 -10 -4 -18 -10 -18 -15 0 -5 -4 -9
-9 -9 -8 0 -296 -168 -361 -210 -8 -5 -31 -19 -50 -31 -19 -11 -53 -31 -75
-45 -22 -13 -48 -27 -57 -30 -10 -4 -18 -10 -18 -14 0 -4 -18 -15 -40 -24 -22
-9 -40 -21 -40 -27 0 -5 -4 -7 -10 -4 -5 3 -10 1 -10 -4 0 -6 -5 -11 -10 -11
-6 0 -42 -19 -81 -42 -38 -24 -82 -50 -97 -59 -15 -9 -91 -55 -170 -102 -79
-48 -146 -87 -148 -87 -3 0 -24 -13 -47 -29 -23 -15 -64 -40 -92 -55 -27 -15
-80 -47 -117 -71 -37 -24 -65 -39 -63 -32 3 7 -93 70 -231 152 -130 77 -241
142 -248 144 -6 2 -13 7 -16 10 -3 4 -43 29 -90 56 -47 27 -87 52 -90 56 -3 3
-10 8 -15 10 -14 5 -171 98 -282 167 -30 17 -58 32 -63 32 -6 0 -10 4 -10 9 0
5 -8 11 -17 14 -10 4 -39 19 -64 34 -164 100 -385 231 -416 248 -21 11 -40 22
-43 25 -3 3 -27 19 -55 34 -27 16 -73 44 -102 62 -28 19 -54 34 -56 34 -3 0
-42 23 -86 50 -44 28 -84 50 -89 50 -4 0 -17 8 -28 18 -10 9 -32 24 -49 32
-16 8 -32 18 -35 21 -5 7 -52 33 -60 34 -7 1 -94 57 -100 64 -3 3 -12 7 -20 9
-8 2 -16 8 -18 13 -2 5 -10 9 -17 9 -8 0 -20 6 -27 13 -7 7 -24 18 -38 25 -14
7 -37 20 -52 30 -14 9 -72 44 -128 77 -132 78 -103 61 -360 215 -124 74 -234
140 -245 146 -52 28 -131 79 -137 88 -4 6 -8 8 -8 3 0 -4 -36 15 -80 43 -44
27 -82 50 -84 50 -6 0 -75 45 -93 60 -7 6 -15 10 -18 10 -3 0 -15 6 -28 14
-12 7 -74 44 -137 81 -63 38 -123 75 -132 83 -10 8 -18 12 -18 8 0 -4 -19 6
-43 22 -44 30 -435 264 -452 271 -5 2 -29 17 -52 32 -23 16 -44 29 -47 29 -2
0 -42 23 -88 51 -46 28 -86 53 -90 56 -5 2 -8 -1333 -8 -2967z"/>
</g>
</svg>
