<svg xmlns="http://www.w3.org/2000/svg" xmlns:xlink="http://www.w3.org/1999/xlink" width="140" height="120" viewBox="0 0 140 120">
  <defs>
    <clipPath id="clip-path">
      <rect id="사각형_3339" data-name="사각형 3339" width="140" height="120" transform="translate(457 3572)" fill="#fff" stroke="#707070" stroke-width="1"/>
    </clipPath>
    <clipPath id="clip-path-2">
      <rect id="사각형_3095" data-name="사각형 3095" width="123.091" height="104.861" fill="none"/>
    </clipPath>
    <clipPath id="clip-path-3">
      <path id="패스_6235" data-name="패스 6235" d="M69.067,21.967l-44,8.741A4.261,4.261,0,0,0,21.731,35.7L33.092,92.881a4.259,4.259,0,0,0,4.992,3.338l44-8.741a4.261,4.261,0,0,0,3.338-4.995L74.06,25.3a4.262,4.262,0,0,0-4.168-3.418,4.215,4.215,0,0,0-.824.081" transform="translate(-21.65 -21.886)" fill="#fff"/>
    </clipPath>
    <linearGradient id="linear-gradient" x1="0.492" y1="0.944" x2="0.482" y2="0.029" gradientUnits="objectBoundingBox">
      <stop offset="0" stop-color="#68ccff"/>
      <stop offset="0.292" stop-color="#68ccff"/>
      <stop offset="1" stop-color="#9cece9"/>
    </linearGradient>
  </defs>
  <g id="마스크_그룹_12" data-name="마스크 그룹 12" transform="translate(-457 -3572)" clip-path="url(#clip-path)">
    <g id="그룹_6568" data-name="그룹 6568" transform="translate(-89.347 -1903.036)">
      <g id="그룹_6348" data-name="그룹 6348" transform="translate(554.347 5490.036)">
        <g id="그룹_6347" data-name="그룹 6347" clip-path="url(#clip-path-2)">
          <path id="패스_6234" data-name="패스 6234" d="M54.673,3.474C35.04-6.083.484,4.546.005,29.647-.33,47.22,15.579,63.069,29.136,72.1,55.841,89.9,94.965,93.027,118.2,67.761c11.287-12.274,1.243-18.837-11.959-20.164-12.9-1.295-25.956.862-33.328-12.691-4.9-9.01-5.391-20.341-13.069-27.8a19.817,19.817,0,0,0-5.171-3.633" transform="translate(0 0)" fill="#1f3444"/>
        </g>
      </g>
      <g id="그룹_6349" data-name="그룹 6349" transform="translate(577.768 5513.712)" clip-path="url(#clip-path-3)">
        <rect id="사각형_3096" data-name="사각형 3096" width="98.077" height="95.269" transform="matrix(0.556, -0.831, 0.831, 0.556, -34.928, 51.689)" fill="url(#linear-gradient)"/>
      </g>
      <g id="그룹_6352" data-name="그룹 6352" transform="translate(554.347 5490.036)">
        <g id="그룹_6351" data-name="그룹 6351" clip-path="url(#clip-path-2)">
          <path id="패스_6236" data-name="패스 6236" d="M79.58,83.779,38.519,91.937a2.022,2.022,0,0,1-2.37-1.585L25.384,36.171A2.022,2.022,0,0,1,26.969,33.8l41.061-8.158a2.022,2.022,0,0,1,2.37,1.585L81.165,81.408a2.023,2.023,0,0,1-1.585,2.37" transform="translate(2.073 2.095)" fill="#fff"/>
          <path id="패스_6237" data-name="패스 6237" d="M53.674,29.368,39.688,32.147a1.346,1.346,0,0,1-1.583-1.058l-.676-3.4a1.346,1.346,0,0,1,1.058-1.583l13.987-2.779a1.346,1.346,0,0,1,1.583,1.058l.676,3.4a1.346,1.346,0,0,1-1.058,1.583" transform="translate(3.059 1.906)" fill="#73c0ef"/>
          <path id="패스_6238" data-name="패스 6238" d="M47.55,24.306a2.537,2.537,0,1,1-2.983-1.994,2.537,2.537,0,0,1,2.983,1.994" transform="translate(3.478 1.821)" fill="#73c0ef"/>
          <path id="패스_6239" data-name="패스 6239" d="M45.653,24.52a.742.742,0,1,1-.872-.583.741.741,0,0,1,.872.583" transform="translate(3.614 1.957)" fill="#fff"/>
          <path id="패스_6240" data-name="패스 6240" d="M39.883,48.34,34.15,49.479a1.3,1.3,0,0,1-1.524-1.019l-1.139-5.732A1.3,1.3,0,0,1,32.506,41.2l5.732-1.138a1.3,1.3,0,0,1,1.524,1.019L40.9,46.815a1.3,1.3,0,0,1-1.019,1.524" transform="translate(2.573 3.275)" fill="#e8f3fd"/>
          <path id="패스_6241" data-name="패스 6241" d="M41.973,58.86,36.24,60a1.3,1.3,0,0,1-1.524-1.019l-1.139-5.732A1.3,1.3,0,0,1,34.6,51.722l5.732-1.138A1.3,1.3,0,0,1,41.853,51.6l1.139,5.732a1.3,1.3,0,0,1-1.019,1.524" transform="translate(2.744 4.136)" fill="#e8f3fd"/>
          <path id="패스_6242" data-name="패스 6242" d="M44.063,69.379,38.33,70.518A1.3,1.3,0,0,1,36.806,69.5l-1.139-5.732a1.3,1.3,0,0,1,1.019-1.525L42.418,61.1a1.3,1.3,0,0,1,1.524,1.019l1.139,5.732a1.3,1.3,0,0,1-1.019,1.524" transform="translate(2.915 4.996)" fill="#e8f3fd"/>
          <path id="패스_6243" data-name="패스 6243" d="M33.826,45.077l1.638,1.214,2.417-3.721" transform="translate(2.767 3.482)" fill="none" stroke="#000" stroke-linecap="round" stroke-miterlimit="10" stroke-width="1"/>
          <path id="패스_6244" data-name="패스 6244" d="M35.916,55.6l1.638,1.214,2.417-3.721" transform="translate(2.938 4.343)" fill="none" stroke="#000" stroke-linecap="round" stroke-miterlimit="10" stroke-width="1"/>
          <path id="패스_6245" data-name="패스 6245" d="M38.006,66.116l1.638,1.214,2.417-3.721" transform="translate(3.109 5.203)" fill="none" stroke="#000" stroke-linecap="round" stroke-miterlimit="10" stroke-width="1"/>
          <line id="선_783" data-name="선 783" y1="4.774" x2="24.026" transform="translate(46.355 41.765)" fill="none" stroke="#000" stroke-linecap="round" stroke-miterlimit="10" stroke-width="1"/>
          <line id="선_784" data-name="선 784" y1="1.668" x2="8.397" transform="translate(48.616 56.251)" fill="none" stroke="#000" stroke-linecap="round" stroke-miterlimit="10" stroke-width="1"/>
          <path id="패스_6246" data-name="패스 6246" d="M55.221,60.487l-.241-1.38-1.6-.865h0L53,56.683l-1.332-.542L46.99,66.227a.315.315,0,0,0,.358.438l10.813-2.585.531-.435-1.44-.675h0l-.435-1.617Z" transform="translate(3.841 4.592)" fill="#e8f3fd"/>
          <path id="패스_6247" data-name="패스 6247" d="M80.385,34.148,51.309,57.94l1.332.542.386,1.558,1.6.865.146.831L83.633,38.117Z" transform="translate(4.197 2.793)" fill="#9fd5ff"/>
          <path id="패스_6248" data-name="패스 6248" d="M86.992,33.734,85.23,31.581a2.346,2.346,0,0,0-3.3-.33L79.935,32.88l3.249,3.969Z" transform="translate(6.538 2.513)" fill="#9fd5ff"/>
          <path id="패스_6249" data-name="패스 6249" d="M54.507,61.435l.1.55h0l1.6.864.435,1.617h0l1.44.675L86.62,41.787l-3.248-3.97Z" transform="translate(4.458 3.094)" fill="#1690f2"/>
          <path id="패스_6250" data-name="패스 6250" d="M82.937,36.623l3.248,3.969,1.993-1.63a2.346,2.346,0,0,0,.33-3.3l-1.762-2.153Z" transform="translate(6.784 2.741)" fill="#1690f2"/>
          <rect id="사각형_3097" data-name="사각형 3097" width="2.444" height="5.129" transform="translate(87.83 40.911) rotate(-39.29)" fill="#00cdf1"/>
          <rect id="사각형_3098" data-name="사각형 3098" width="2.444" height="5.129" transform="matrix(0.774, -0.633, 0.633, 0.774, 84.582, 36.941)" fill="#8ae7f6"/>
          <path id="패스_6251" data-name="패스 6251" d="M57.246,62.681l-.435-1.617-1.6-.864h0l-.1-.55-8.092,6.622a.309.309,0,0,0,.317.106l10.811-2.584.532-.436Z" transform="translate(3.847 4.879)" fill="#aac8f4"/>
          <path id="패스_6252" data-name="패스 6252" d="M47.883,63.684,46.99,65.61a.315.315,0,0,0,.358.438l2.064-.494a3.3,3.3,0,0,0-1.53-1.869" transform="translate(3.841 5.209)"/>
          <path id="패스_6253" data-name="패스 6253" d="M24.45,93.468a2.9,2.9,0,1,1-2.9-2.9A2.9,2.9,0,0,1,24.45,93.468Z" transform="translate(1.525 7.408)" fill="none" stroke="#aac8f4" stroke-miterlimit="10" stroke-width="2"/>
          <path id="패스_6254" data-name="패스 6254" d="M12.6,53.329a.229.229,0,0,1,.291-.27l1.643.5,1.644.5a.23.23,0,0,1,.09.387l-1.258,1.172L13.746,56.8a.23.23,0,0,1-.38-.117L12.982,55Z" transform="translate(1.03 4.339)" fill="none" stroke="#1690f2" stroke-miterlimit="10" stroke-width="1"/>
          <path id="패스_6255" data-name="패스 6255" d="M91,79.543a.3.3,0,0,1,.374-.348l2.118.648,2.119.649a.3.3,0,0,1,.115.5L94.107,82.5l-1.622,1.51A.3.3,0,0,1,92,83.862L91.5,81.7Z" transform="translate(7.443 6.477)" fill="none" stroke="#8ae7f6" stroke-miterlimit="10" stroke-width="1"/>
          <path id="패스_6256" data-name="패스 6256" d="M84.54,16.164a2.3,2.3,0,1,1-2.3-2.3,2.3,2.3,0,0,1,2.3,2.3" transform="translate(6.538 1.134)" fill="#9fd5ff"/>
        </g>
      </g>
    </g>
  </g>
</svg>
