<svg xmlns="http://www.w3.org/2000/svg" xmlns:xlink="http://www.w3.org/1999/xlink" width="140" height="120" viewBox="0 0 140 120">
  <defs>
    <clipPath id="clip-path">
      <rect id="사각형_3340" data-name="사각형 3340" width="140" height="120" transform="translate(696 3577)" fill="#fff" stroke="#707070" stroke-width="1"/>
    </clipPath>
    <clipPath id="clip-path-2">
      <rect id="사각형_3100" data-name="사각형 3100" width="133.071" height="113.363" fill="#1f3444"/>
    </clipPath>
    <clipPath id="clip-path-3">
      <path id="패스_6258" data-name="패스 6258" d="M85.176,28.571l-48.5.1a4.6,4.6,0,0,0-4.581,4.6L32.231,96.3a4.605,4.605,0,0,0,4.6,4.582l48.495-.1a4.6,4.6,0,0,0,4.581-4.6l-.131-63.025a4.6,4.6,0,0,0-4.591-4.581h-.009" transform="translate(-32.099 -28.571)" fill="none"/>
    </clipPath>
    <linearGradient id="linear-gradient" x1="0.378" y1="0.891" x2="0.599" y2="0.086" gradientUnits="objectBoundingBox">
      <stop offset="0" stop-color="#68ccff"/>
      <stop offset="1" stop-color="#9cece9"/>
    </linearGradient>
    <clipPath id="clip-path-4">
      <rect id="사각형_3102" data-name="사각형 3102" width="133.071" height="113.363" fill="none"/>
    </clipPath>
    <clipPath id="clip-path-5">
      <path id="패스_6267" data-name="패스 6267" d="M61.553,63.91,55.565,91.361a3.521,3.521,0,0,0,2.681,4.176l29.094,6.346A3.519,3.519,0,0,0,91.514,99.2L97.5,71.752a3.519,3.519,0,0,0-2.681-4.176L65.729,61.23a3.509,3.509,0,0,0-4.176,2.681" transform="translate(-55.484 -61.149)" fill="none"/>
    </clipPath>
    <linearGradient id="linear-gradient-2" x1="0.473" y1="0.068" x2="0.605" y2="0.7" gradientUnits="objectBoundingBox">
      <stop offset="0" stop-color="#9fd5ff"/>
      <stop offset="1" stop-color="#1690f2"/>
    </linearGradient>
  </defs>
  <g id="마스크_그룹_13" data-name="마스크 그룹 13" transform="translate(-696 -3577)" clip-path="url(#clip-path)">
    <g id="그룹_6566" data-name="그룹 6566" transform="translate(-80 -1898)">
      <g id="그룹_6364" data-name="그룹 6364" transform="translate(779 5482)">
        <g id="그룹_6355" data-name="그룹 6355" transform="translate(0 0)">
          <g id="그룹_6354" data-name="그룹 6354" clip-path="url(#clip-path-2)">
            <path id="패스_6257" data-name="패스 6257" d="M59.106,3.755C37.881-6.576.523,4.914.006,32.05c-.363,19,16.836,36.132,31.492,45.9,28.87,19.237,71.167,22.621,96.285-4.693,12.2-13.269,1.344-20.365-12.929-21.8-13.945-1.4-28.06.932-36.03-13.719C73.527,28,73,15.747,64.7,7.682a21.423,21.423,0,0,0-5.59-3.927" transform="translate(0 0)" fill="#1f3444"/>
          </g>
        </g>
        <g id="그룹_6357" data-name="그룹 6357" transform="translate(37.54 33.414)">
          <g id="그룹_6356" data-name="그룹 6356" clip-path="url(#clip-path-3)">
            <rect id="사각형_3101" data-name="사각형 3101" width="92.039" height="91.996" transform="translate(-36.161 36.308) rotate(-45.12)" fill="url(#linear-gradient)"/>
          </g>
        </g>
        <g id="그룹_6359" data-name="그룹 6359" transform="translate(0 0)">
          <g id="그룹_6358" data-name="그룹 6358" clip-path="url(#clip-path-4)">
            <path id="패스_6259" data-name="패스 6259" d="M83.115,96.126l-45.258.095a2.186,2.186,0,0,1-2.183-2.175l-.125-59.719a2.185,2.185,0,0,1,2.174-2.185l45.258-.095a2.187,2.187,0,0,1,2.185,2.175l.125,59.719a2.187,2.187,0,0,1-2.175,2.185" transform="translate(6.026 5.433)" fill="#fff"/>
            <path id="패스_6260" data-name="패스 6260" d="M65.8,33.84l-15.416.033a1.456,1.456,0,0,1-1.458-1.453l-.008-3.749a1.455,1.455,0,0,1,1.453-1.457l15.416-.033a1.455,1.455,0,0,1,1.458,1.451l.008,3.749A1.456,1.456,0,0,1,65.8,33.84" transform="translate(8.291 4.608)" fill="#73c0ef"/>
            <path id="패스_6261" data-name="패스 6261" d="M59.887,27.587a2.742,2.742,0,1,1-2.748-2.737,2.743,2.743,0,0,1,2.748,2.737" transform="translate(9.221 4.213)" fill="#73c0ef"/>
            <path id="패스_6262" data-name="패스 6262" d="M57.664,27.309a.8.8,0,1,1-.8-.8.8.8,0,0,1,.8.8" transform="translate(9.503 4.494)" fill="#fff"/>
            <line id="선_785" data-name="선 785" y1="0.067" x2="31.724" transform="translate(50.58 56.56)" fill="none" stroke="#000" stroke-linecap="round" stroke-miterlimit="10" stroke-width="1"/>
            <line id="선_786" data-name="선 786" y1="0.067" x2="31.724" transform="translate(50.582 64.922)" fill="none" stroke="#000" stroke-linecap="round" stroke-miterlimit="10" stroke-width="1"/>
            <line id="선_787" data-name="선 787" y1="0.067" x2="15.952" transform="translate(50.583 73.284)" fill="none" stroke="#000" stroke-linecap="round" stroke-miterlimit="10" stroke-width="1"/>
            <line id="선_788" data-name="선 788" y1="0.053" x2="10.259" transform="translate(50.585 81.661)" fill="none" stroke="#000" stroke-linecap="round" stroke-miterlimit="10" stroke-width="1"/>
            <path id="패스_6263" data-name="패스 6263" d="M24.92,93.7a3.137,3.137,0,1,1-3.137-3.137A3.137,3.137,0,0,1,24.92,93.7Z" transform="translate(3.161 15.352)" fill="none" stroke="#aac8f4" stroke-miterlimit="10" stroke-width="2"/>
            <path id="패스_6264" data-name="패스 6264" d="M12.6,53.352a.248.248,0,0,1,.315-.292l1.776.544,1.778.545a.248.248,0,0,1,.1.419L15.2,55.834,13.84,57.1a.248.248,0,0,1-.41-.126l-.416-1.812Z" transform="translate(2.134 8.992)" fill="none" stroke="#1690f2" stroke-miterlimit="10" stroke-width="1"/>
            <path id="패스_6265" data-name="패스 6265" d="M91,79.573a.319.319,0,0,1,.4-.377l2.29.7,2.291.7a.32.32,0,0,1,.124.54L94.36,82.77,92.607,84.4a.319.319,0,0,1-.529-.161l-.537-2.334Z" transform="translate(15.424 13.422)" fill="none" stroke="#8ae7f6" stroke-miterlimit="10" stroke-width="1"/>
            <path id="패스_6266" data-name="패스 6266" d="M84.914,16.351a2.489,2.489,0,1,1-2.489-2.489,2.489,2.489,0,0,1,2.489,2.489" transform="translate(13.549 2.35)" fill="#9fd5ff"/>
          </g>
        </g>
        <g id="그룹_6361" data-name="그룹 6361" transform="translate(64.889 71.514)">
          <g id="그룹_6360" data-name="그룹 6360" clip-path="url(#clip-path-5)">
            <rect id="사각형_3103" data-name="사각형 3103" width="58.21" height="57.724" transform="translate(-19.034 12.005) rotate(-32.695)" fill="url(#linear-gradient-2)"/>
          </g>
        </g>
        <g id="그룹_6363" data-name="그룹 6363" transform="translate(0 0)">
          <g id="그룹_6362" data-name="그룹 6362" clip-path="url(#clip-path-4)">
            <rect id="사각형_3104" data-name="사각형 3104" width="2.347" height="12.56" transform="translate(80.982 84.625) rotate(-77.694)" fill="#fff"/>
            <rect id="사각형_3105" data-name="사각형 3105" width="3.66" height="3.018" transform="translate(85.894 84.495) rotate(-77.693)" fill="#fff"/>
            <path id="패스_6268" data-name="패스 6268" d="M73.262,82.664a4.361,4.361,0,1,1,5.19-3.332,4.366,4.366,0,0,1-5.19,3.332m1.359-6.229a2.014,2.014,0,1,0,1.538,2.4,2.016,2.016,0,0,0-1.538-2.4" transform="translate(11.837 12.551)" fill="#fff"/>
            <path id="패스_6269" data-name="패스 6269" d="M74.065,84.283a1.42,1.42,0,1,1-1.085-1.69,1.421,1.421,0,0,1,1.085,1.69" transform="translate(12.078 13.995)" fill="#fff"/>
            <path id="패스_6270" data-name="패스 6270" d="M79.258,90.15,65.7,87.192l1.124-5.155,2.293.5L68.49,85.4l11.268,2.457Z" transform="translate(11.136 13.906)" fill="#fff"/>
          </g>
        </g>
      </g>
    </g>
  </g>
</svg>
