<svg xmlns="http://www.w3.org/2000/svg" width="17" height="14" viewBox="0 0 17 14">
  <g id="그룹_6673" data-name="그룹 6673" transform="translate(-0.359 14.283) rotate(-90)">
    <path id="다각형_3" data-name="다각형 3" d="M6.293.707a1,1,0,0,1,1.414,0l4.586,4.586A1,1,0,0,1,11.586,7H2.414a1,1,0,0,1-.707-1.707Z" transform="translate(14.283 17.359) rotate(180)" fill="#fff"/>
    <path id="다각형_4" data-name="다각형 4" d="M6.349.558a1,1,0,0,1,1.3,0l4.3,3.683A1,1,0,0,1,11.3,6H2.7a1,1,0,0,1-.651-1.759Z" transform="translate(14.283 6.359) rotate(180)" fill="#fff" opacity="0.5"/>
  </g>
</svg>
