<svg xmlns="http://www.w3.org/2000/svg" width="149.932" height="230.54" viewBox="0 0 149.932 230.54">
  <g id="img-1" transform="translate(0)">
    <g id="그룹_409" data-name="그룹 409">
      <path id="패스_170" data-name="패스 170" d="M-672.113,437h0a31.089,31.089,0,0,1-30.9-30.9V294.588a71.59,71.59,0,0,0,.654-8.339V265.32a19.678,19.678,0,0,0-19.62-19.62,19.678,19.678,0,0,0-19.62,19.62v20.928a20.445,20.445,0,0,1-20.438,20.438H-780.68a19.678,19.678,0,0,0-19.62,19.62,19.678,19.678,0,0,0,19.62,19.62h18.639a58.822,58.822,0,0,0,19.948-3.434v63.6a70.2,70.2,0,0,0,69.98,70.143,19.678,19.678,0,0,0,19.62-19.62A19.573,19.573,0,0,0-672.113,437Z" transform="translate(800.3 -245.7)" fill="#fff"/>
      <circle id="타원_139" data-name="타원 139" cx="19.621" cy="19.621" r="19.621" transform="translate(110.69 61.028)" fill="#fff"/>
    </g>
    <path id="패스_170-2" data-name="패스 170" d="M-672.113,437h0a31.089,31.089,0,0,1-30.9-30.9V294.588a71.59,71.59,0,0,0,.654-8.339V265.32a19.678,19.678,0,0,0-19.62-19.62,19.678,19.678,0,0,0-19.62,19.62v20.928a20.445,20.445,0,0,1-20.438,20.438H-780.68a19.678,19.678,0,0,0-19.62,19.62,19.678,19.678,0,0,0,19.62,19.62h18.639a58.822,58.822,0,0,0,19.948-3.434v63.6a70.2,70.2,0,0,0,69.98,70.143,19.678,19.678,0,0,0,19.62-19.62A19.573,19.573,0,0,0-672.113,437Z" transform="translate(800.3 -245.7)" fill="#fff"/>
    <circle id="타원_139-2" data-name="타원 139" cx="19.621" cy="19.621" r="19.621" transform="translate(110.69 61.028)" fill="#fff"/>
  </g>
</svg>
