<svg id="그룹_16561" data-name="그룹 16561" xmlns="http://www.w3.org/2000/svg" width="14" height="26" viewBox="0 0 14 26">
  <path id="다각형_3" data-name="다각형 3" d="M6.349.558a1,1,0,0,1,1.3,0l4.3,3.683A1,1,0,0,1,11.3,6H2.7a1,1,0,0,1-.651-1.759Z" transform="translate(14 26) rotate(180)"/>
  <path id="다각형_4" data-name="다각형 4" d="M6.349.558a1,1,0,0,1,1.3,0l4.3,3.683A1,1,0,0,1,11.3,6H2.7a1,1,0,0,1-.651-1.759Z" transform="translate(14 16) rotate(180)" opacity="0.3"/>
  <path id="다각형_5" data-name="다각형 5" d="M6.349.558a1,1,0,0,1,1.3,0l4.3,3.683A1,1,0,0,1,11.3,6H2.7a1,1,0,0,1-.651-1.759Z" transform="translate(14 6) rotate(180)" opacity="0.1"/>
</svg>
